<svg id="Layer_1" data-name="Layer 1" xmlns="http://www.w3.org/2000/svg" xmlns:xlink="http://www.w3.org/1999/xlink" viewBox="0 0 401.77 102.98"><defs><style>.cls-1{fill:none;}.cls-2{clip-path:url(#clip-path);}.cls-3{fill:#010101;}</style><clipPath id="clip-path"><rect class="cls-1" width="401.77" height="102.98"/></clipPath></defs><title>Artboard 1</title><g class="cls-2"><path class="cls-3" d="M69.19,54.08c-1.32,3.36-3.48,9.24-3.48,10.92,0,1.26.6,1.56,1.5,1.56H71v1.8H58.87v-1.8h1.2c.9,0,1.8-.18,2.16-1L77.41,29.66c1.5-.36,3.18-.78,3.54-.78a.57.57,0,0,1,.6.6c0,.78-1.08.72-1.08,1.86,0,2.58,7.44,22.62,10.38,30.6,1.38,3.78,2.09,4.62,3.65,4.62h1.8v1.8H82.87v-1.8H86.1c.42,0,.85-.18.85-.6s-1.68-4.62-4.14-11.88ZM76.69,36,70,51.92H82Z"/><path class="cls-3" d="M100.75,51.62c0-7.2-.48-7.2-2.46-7.2H96V42.8c.9,0,2.94-.24,4.86-.48s3.9-.48,4.56-.48v4.32c3.06-2.1,5.82-4.32,9.48-4.32,7,0,10.08,6.66,10.08,12.84,0,8.1-4.86,14.64-13.38,14.64a15.41,15.41,0,0,1-6.18-1.86v4.62c0,6.54.06,9.42,1.86,9.42h3.24v1.62H97.39V81.5h2.1c.54,0,1.26-.24,1.26-1Zm4.68,13.68a10.53,10.53,0,0,0,6,2.22c6.54,0,8.7-5.64,8.7-11.34,0-5.22-1.8-11.1-7.92-11.1a10.22,10.22,0,0,0-6.78,3.12Z"/><path class="cls-3" d="M130,51.62c0-7.2-.48-7.2-2.46-7.2h-2.28V42.8c.9,0,2.94-.24,4.86-.48s3.9-.48,4.56-.48v4.32c3.06-2.1,5.82-4.32,9.47-4.32,7,0,10.08,6.66,10.08,12.84,0,8.1-4.86,14.64-13.37,14.64a15.41,15.41,0,0,1-6.18-1.86v4.62c0,6.54.06,9.42,1.86,9.42h3.24v1.62H126.61V81.5h2.1c.54,0,1.26-.24,1.26-1Zm4.68,13.68a10.53,10.53,0,0,0,6,2.22c6.54,0,8.69-5.64,8.69-11.34,0-5.22-1.8-11.1-7.91-11.1a10.22,10.22,0,0,0-6.78,3.12Z"/><path class="cls-3" d="M164.28,57.32c0,6.54.06,9.42,1.86,9.42H169v1.62H156.24V66.74h2.11c.53,0,1.25-.24,1.25-1V36.14c0-7.2-.48-7.2-2.46-7.2h-2.27V27.32a92.24,92.24,0,0,0,9.41-1.26Z"/><path class="cls-3" d="M182.71,68.36H169.93V66.74H172c.54,0,1.26-.24,1.26-1V51.62c0-7.2-.48-7.2-2.46-7.2h-2.28V42.8c.9,0,2.94-.24,4.86-.48s3.89-.48,4.56-.48V57.32c0,6.54.06,9.42,1.86,9.42h2.88Zm-4.8-35.1a2.7,2.7,0,1,1-5.4,0,2.7,2.7,0,1,1,5.4,0"/><path class="cls-3" d="M206.16,64.58a15.46,15.46,0,0,1-11.28,4.74c-7.56,0-11.46-5.94-11.46-13s3.78-14.52,11.64-14.52c5.58,0,8.4,3.78,10.62,8.52L188.1,55.1c.3,5.88,2.76,11.4,9.66,11.4a11.14,11.14,0,0,0,7.56-3Zm-5.82-14.52c-1-2.64-3-6.42-6.18-6.42-4.14,0-6.06,5.88-6.06,9.66Z"/><path class="cls-3" d="M232.32,57.32c0,6.54.06,9.42,1.86,9.42h2.88v1.62c-3.12.12-6.3.54-9.42,1V64.88c-2.94,2.28-5.64,4.44-9.12,4.44-7.26,0-10.62-6.18-10.62-12.78,0-9.9,6.84-14.7,12.72-14.7a12.74,12.74,0,0,1,7,2.16V36.14c0-7.2-.48-7.2-2.46-7.2H222.9V27.33a92.37,92.37,0,0,0,9.42-1.26Zm-4.68-11.4a9.87,9.87,0,0,0-5.94-2.28c-6.48,0-8.94,5.46-8.94,11.28,0,5.64,1.68,11.16,8.28,11.16a9.28,9.28,0,0,0,6.6-3.3Z"/><path class="cls-3" d="M253.32,32.06h-2.7c-.66,0-.9.42-.9,1V58.76c0,7.44.66,7.44,2.46,7.44h4c10.2,0,12.54-1.5,13.56-3.18.18-.3.3-.66.72-.66.24,0,.48.36.48.66a50.08,50.08,0,0,1-1.5,5.34H240.9v-1.8h2.82c.66,0,.9-.42.9-1V40.52c0-6.18-.12-8.46-1.68-8.46H239.4v-1.8h13.92Z"/><path class="cls-3" d="M286.74,52.22V49.16c0-2.7-.18-4.92-4.44-4.92a8.85,8.85,0,0,0-4.86,1.44c0,3.24-1.32,5.58-3.36,5.58a1.61,1.61,0,0,1-1.62-1.62c0-4.2,6.36-7.8,12.72-7.8,5.94,0,6.24,2.88,6.24,7.74v9.18c0,5,.36,6.6,4,7.5l-1.8,3.06a7,7,0,0,1-6.48-5.46c-2.34,2.34-6.36,5.46-9.72,5.46S272,67,272,63.68c0-5.16,5.1-7.5,12.6-10.56Zm0,1.86c-6.12,2.34-9.9,4.38-9.9,8.46A2.91,2.91,0,0,0,280,65.78c2.76,0,5.22-1.86,6.78-4Z"/><path class="cls-3" d="M298.8,36.14c0-7.2-.48-7.2-2.46-7.2h-2.28V27.33a90.1,90.1,0,0,0,9.42-1.27V46c2.82-2,5.58-4.2,9.24-4.2,7,0,10.08,6.66,10.08,12.84,0,8.1-4.86,14.64-13.38,14.64a15.55,15.55,0,0,1-8.52-2.82l-1.14,2.82H298.5c.18-2.76.3-5.46.3-8.16Zm4.68,29.4a9.56,9.56,0,0,0,5.76,2c6.54,0,8.7-5.64,8.7-11.34,0-5.22-1.8-11.1-7.92-11.1-2.7,0-4.5,1.38-6.54,3Z"/><path class="cls-3" d="M331.26,69.32a20.76,20.76,0,0,1-7.14-1.2c-.42-2.64-.72-4.38-.72-4.86,0-.72.24-.9.66-.9s.72.42.84,1c.78,2.7,4.92,4,7.32,4,3.24,0,7-1.5,7-5.52,0-6.12-15.12-2.52-15.12-11.94,0-2.88,2.4-8,10.8-8a16.12,16.12,0,0,1,6.36,1.32c.18,1.8.36,3.36.36,3.84s-.12.84-.54.84-.6-.3-.78-.66c-1-2.28-4.14-3.36-6.42-3.36-2.52,0-6.06,1.38-6.06,4.44,0,6.06,15.48,2.82,15.48,12.36,0,6.3-6.78,8.7-12.06,8.7"/></g></svg>