<svg xmlns="http://www.w3.org/2000/svg" xmlns:xlink="http://www.w3.org/1999/xlink" viewBox="0 0 4949.03 1350.34"><defs><style>.cls-1{fill:url(#linear-gradient);}.cls-2{fill:#3c66ae;}.cls-3{fill:#f18918;}.cls-4{fill:#60b566;}.cls-5{fill:#ffd302;}.cls-6{fill:#e62239;}.cls-7{fill:#9b519a;}</style><linearGradient id="linear-gradient" x1="604.54" x2="604.54" y2="1350.34" gradientUnits="userSpaceOnUse"><stop offset="0" stop-color="#eaf6fa"/><stop offset="0.99" stop-color="#ebeef9"/></linearGradient></defs><title>Logo1</title><g id="Слой_2" data-name="Слой 2"><g id="Слой_1-2" data-name="Слой 1"><path class="cls-1" d="M1135.08,283.4,678.56,19.83a148,148,0,0,0-148,0L74,283.4A148,148,0,0,0,0,411.6V938.74a148,148,0,0,0,74,128.19l456.52,263.57a148,148,0,0,0,148,0l456.52-263.57a148,148,0,0,0,74-128.19V411.6A148,148,0,0,0,1135.08,283.4Z"/><path class="cls-2" d="M381.5,496.71,296.93,718.81a74.14,74.14,0,0,1,22.37,20.5L811.8,501a87.33,87.33,0,0,1-4.06-26.35c0-1.84.16-3.63.27-5.44L536.29,412.16A127.37,127.37,0,0,1,381.5,496.71Z"/><path class="cls-2" d="M31.46,657.64V912.89l159.74-102a73.64,73.64,0,0,1-.49-55.83Z"/><path class="cls-2" d="M602.84,929.08a87,87,0,0,1,29.95,5.38L843,544.7a87.75,87.75,0,0,1-20.29-21.07L330.26,761.93a73.07,73.07,0,0,1-3.77,51L422,877.95l116.61,79.48A87,87,0,0,1,602.84,929.08Z"/><path class="cls-2" d="M398.65,1218l136.21-146.78a86.93,86.93,0,0,1-10.45-93.06L417.06,905,312.34,833.65a73.59,73.59,0,0,1-45,22.06l-17.22,276.56Z"/><path class="cls-2" d="M259.31,708.44a74.11,74.11,0,0,1,14.15,1.39L358,487.76a127.37,127.37,0,0,1-69.88-101.37H36.38a135.35,135.35,0,0,0-4.92,36.11V628.19L203.84,733.65A73.61,73.61,0,0,1,259.31,708.44Z"/><path class="cls-2" d="M542.17,373.82a128.92,128.92,0,0,1-.75,13.74l271.73,57.06a87.31,87.31,0,0,1,74.17-56.92l11.33-204.48L683.29,58.87,503.86,282.82A126.92,126.92,0,0,1,542.17,373.82Z"/><path class="cls-2" d="M672.81,964.29,928.55,825.86a48,48,0,0,1,23.94-53.5L902.73,561.63c-2.52.22-5.05.38-7.63.38a87,87,0,0,1-29.95-5.38L654.9,946.41A87.8,87.8,0,0,1,672.81,964.29Z"/><path class="cls-2" d="M242.26,854.1A73.68,73.68,0,0,1,204.81,832L32.29,942.18a135.43,135.43,0,0,0,66.9,103l126.62,73.1Z"/><path class="cls-2" d="M655.22,1086.24a87,87,0,0,1-101.95,2.1L421,1230.91l115.83,66.88a135.48,135.48,0,0,0,135.48,0l123.8-71.47Z"/><path class="cls-2" d="M818.63,1213.29l225.89-130.42L977,862.9c-.54,0-1.07.08-1.62.08a48,48,0,0,1-34.91-15L684.78,986.38a86.6,86.6,0,0,1-11.84,82Z"/><path class="cls-2" d="M1019.54,834.18a48.34,48.34,0,0,1-18.46,21.36L1066.84,1070l43-24.85a135.48,135.48,0,0,0,67.74-117.33V858.18Z"/><path class="cls-2" d="M1023.31,809.33l154.33,23.43V616.38l-209-94.64a87.53,87.53,0,0,1-41.42,34.12L977,766.64A48.17,48.17,0,0,1,1023.31,809.33Z"/><path class="cls-2" d="M912.42,389A87.17,87.17,0,0,1,979,498.85l198.64,89.94V422.5a135.48,135.48,0,0,0-67.74-117.33L923,197.29Z"/><path class="cls-2" d="M288.14,361.26A127.3,127.3,0,0,1,484.25,267.1L660.85,46.69a135.44,135.44,0,0,0-124,5.82L99.2,305.17a135.4,135.4,0,0,0-53.07,56.09Z"/><circle class="cls-3" cx="414.84" cy="373.82" r="92.56"/><circle class="cls-4" cx="259.32" cy="782.3" r="42.15"/><circle class="cls-5" cx="602.84" cy="1016.44" r="58"/><circle class="cls-6" cx="975.43" cy="814.77" r="28.61"/><circle class="cls-7" cx="895.1" cy="474.66" r="56.84"/><path class="cls-2" d="M1662.32,339.18c106.09,0,158.07,63.06,158.07,149.12s-52,149.12-158.07,149.12h-92.46V339.18Zm.43,24.29h-67.32V613.15h67.32c88.62,0,132.51-49.42,132.51-124.84S1751.37,363.47,1662.75,363.47Z"/><path class="cls-2" d="M1886,386.9c-8.95,0-16.62-5.11-16.62-16.19,0-10.23,7.67-16.19,16.62-16.19,8.52,0,16.19,6,16.19,16.19C1902.2,381.79,1894.53,386.9,1886,386.9Zm-11.93,250.53V432.92h24.29V637.43Z"/><path class="cls-2" d="M2053.88,428.23c40.9,0,69.88,20.88,87.34,46.87V432.92H2163V637.43c0,69.87-53.69,98.42-109.5,98.42a179.42,179.42,0,0,1-81.81-19.17V693.25c24.29,13.21,50.7,20.45,78.82,20.45,46.44,0,88.62-20.45,88.62-76.27V597c-15.34,24.29-44.31,45.16-85.21,45.16-57.95,0-101.83-43.89-101.83-106.94S1995.94,428.23,2053.88,428.23Zm3,22.16c-45.16,0-80.53,32-80.53,84.79,0,52.41,35.36,84.79,80.53,84.79,39.62,0,70.3-25.14,82.23-54.11V507.48C2127.17,476.8,2096.49,450.39,2056.86,450.39Z"/><path class="cls-2" d="M2242.63,386.9c-8.95,0-16.62-5.11-16.62-16.19,0-10.23,7.67-16.19,16.62-16.19,8.52,0,16.19,6,16.19,16.19C2258.82,381.79,2251.16,386.9,2242.63,386.9ZM2230.7,637.43V432.92H2255V637.43Z"/><path class="cls-2" d="M2358.52,361.34v71.58h85.64V455.5h-85.64V573.95c0,32.38,15.34,45.16,47.29,45.16a113.14,113.14,0,0,0,44.74-9.37v22.16c-13.63,6-32,9.8-51.13,9.8-39.2,0-64.76-21.3-64.76-63.48V455.5h-38.35V432.92h38.35V367.73Z"/><path class="cls-2" d="M2669.13,618.26a49.26,49.26,0,0,0,15.76-3v19.6a64,64,0,0,1-22.16,4.26c-17.47,0-33.23-8.52-35.36-31.53-20.45,22.16-49.85,34.51-83.94,34.51-35.79,0-71.15-18.75-71.15-60.5,0-50.7,46.87-66.89,90.33-66.89a244.38,244.38,0,0,1,64.34,8.95V510c0-35.79-23-59.65-65.19-59.65a188.16,188.16,0,0,0-73.28,14.49V441a231.4,231.4,0,0,1,75.84-12.78c54.11,0,86.49,30.25,86.49,84.79v87.34C2650.81,614,2659.33,618.26,2669.13,618.26Zm-121,3c30.68,0,60.5-14.06,78.82-40.05V543.7c-17.89-4.69-40.48-8.52-60.93-8.52-33.66,0-69,11.08-69,45.16C2497,608.46,2522.13,621.24,2548.12,621.24Z"/><path class="cls-2" d="M2746.67,326.4v311h-24.29v-311Z"/><path class="cls-2" d="M2959.28,333.64c32,0,63.48,6.82,90.33,19.6v47.29c-22.58-14.49-52.83-22.16-83.51-22.16-58.37,0-117.17,32-117.17,109.93,0,85.21,61.78,110.35,115.89,110.35,16.62,0,32.81-3,44.74-8.52V477.23h47.29V622.95a237.26,237.26,0,0,1-95,20c-82.66,0-162.76-43.46-162.76-154.66C2799.08,383.07,2879.18,333.64,2959.28,333.64Z"/><path class="cls-2" d="M3200.44,427.38c81.38,0,109.5,65.61,96.29,124.84H3142.92c5.11,36.64,40.9,52,78.4,52,24.71,0,47.29-6,64.76-14.49v39.2c-18.75,8.95-44.74,14.06-73.28,14.06-62.63,0-115.89-35.79-115.89-107.8C3096.9,461,3153.14,427.38,3200.44,427.38Zm2.13,37.92c-30.68,0-58.37,18.32-60.08,52.83h113.33C3258.38,500.24,3247.3,465.3,3202.57,465.3Z"/><path class="cls-2" d="M3454.8,427.38c51.55,0,84.36,34.94,84.36,83.51V637.43h-45.59V516.85c0-33.23-20.45-49-47.72-49-26,0-45.59,17.47-57.09,34.09V637.43h-45.59V432.92h40.48V461C3398.56,443.14,3423.7,427.38,3454.8,427.38Z"/><path class="cls-2" d="M3684.45,427.38c81.38,0,109.5,65.61,96.29,124.84H3626.93c5.11,36.64,40.9,52,78.4,52,24.71,0,47.29-6,64.76-14.49v39.2c-18.75,8.95-44.74,14.06-73.28,14.06-62.63,0-115.89-35.79-115.89-107.8C3580.92,461,3637.16,427.38,3684.45,427.38Zm2.13,37.92c-30.68,0-58.37,18.32-60.08,52.83h113.33C3742.4,500.24,3731.32,465.3,3686.58,465.3Z"/><path class="cls-2" d="M3953.73,428.66v44.74c-36.64-5.11-68.6,11.08-81,40.05v124h-45.59V432.92h40.48v33.66C3883.43,441.44,3916.66,425.25,3953.73,428.66Z"/><path class="cls-2" d="M4175.29,605.05c4.69,0,9.37-1.28,13.63-2.56V635.3a79.62,79.62,0,0,1-29,5.11c-18.75,0-33.66-7.24-40.9-23.86-20,16.19-45.16,26.42-77.12,26.42-37.07,0-71.58-20.45-71.58-62.63,0-52.41,48.57-68.6,91.18-68.6,17.47,0,37.07,2.56,53.26,6v-7.24c0-25.56-18.75-43.46-53.68-43.46a182.1,182.1,0,0,0-73.71,15.76V441c16.19-5.54,45.59-13.63,78.4-13.63,57.95,0,94.59,27.69,94.59,89.47v73.28C4160.38,601.64,4167.19,605.05,4175.29,605.05Zm-158.07-27.69c0,20,17.89,30.25,38.35,30.25a83.15,83.15,0,0,0,59.22-24.29V548.81c-12.36-2.56-29.83-5.11-44.31-5.11C4044.48,543.7,4017.22,551.79,4017.22,577.36Z"/><path class="cls-2" d="M4278.4,360.06v72.86h74.14V473H4278.4V566.7c0,26.84,12.36,35.79,38.77,35.79a109.93,109.93,0,0,0,41.33-8.1v39.2c-15.34,5.54-34.94,8.95-55,8.95-39.62,0-70.3-19.6-70.3-67.32V473h-36.64V432.92h36.64V371.14Z"/><path class="cls-2" d="M4419.42,393.72c-14.91,0-28.12-8.52-28.12-27.27,0-17.89,13.21-26.84,28.12-26.84s27.7,8.95,27.7,26.84C4447.12,385.2,4434.34,393.72,4419.42,393.72Zm-23,243.71V432.92H4442V637.43Z"/><path class="cls-2" d="M4597.95,427.38c57.52,0,110.78,37.07,110.78,107.8S4655.47,643,4597.95,643c-57.09,0-110.78-37.07-110.78-107.8S4540.85,427.38,4597.95,427.38Zm0,41.75c-38.35,0-64.76,26-64.76,66s26.42,66,64.76,66c37.92,0,64.34-26,64.34-66S4635.87,469.13,4597.95,469.13Z"/><path class="cls-2" d="M4864.67,427.38c51.55,0,84.36,34.94,84.36,83.51V637.43h-45.59V516.85c0-33.23-20.45-49-47.72-49-26,0-45.59,17.47-57.09,34.09V637.43H4753V432.92h40.48V461C4808.43,443.14,4833.57,427.38,4864.67,427.38Z"/><path class="cls-2" d="M1609.09,819.88V994.59h-25.61V819.88Z"/><path class="cls-2" d="M1692.61,876.6c45.71,0,61.51,36.86,54.09,70.12h-86.4c2.87,20.58,23,29.2,44,29.2a84.07,84.07,0,0,0,36.38-8.14v22c-10.53,5-25.13,7.9-41.16,7.9-35.18,0-65.1-20.1-65.1-60.55C1634.45,895.51,1666,876.6,1692.61,876.6Zm1.2,21.3c-17.23,0-32.79,10.29-33.74,29.68h63.66C1725.16,917.53,1718.93,897.9,1693.8,897.9Z"/><path class="cls-2" d="M1879,976.4a27.11,27.11,0,0,0,7.66-1.44v18.43a44.72,44.72,0,0,1-16.27,2.87c-10.53,0-18.91-4.07-23-13.4-11.25,9.09-25.37,14.84-43.32,14.84-20.82,0-40.21-11.49-40.21-35.18,0-29.44,27.28-38.53,51.22-38.53a152.71,152.71,0,0,1,29.92,3.35v-4.07c0-14.36-10.53-24.41-30.15-24.41a102.29,102.29,0,0,0-41.4,8.86V884.26c9.09-3.11,25.61-7.66,44-7.66,32.55,0,53.13,15.56,53.13,50.26V968C1870.66,974.49,1874.49,976.4,1879,976.4Zm-88.79-15.56c0,11.25,10.05,17,21.54,17a46.7,46.7,0,0,0,33.27-13.64V944.81a134,134,0,0,0-24.89-2.87C1805.56,941.94,1790.25,946.49,1790.25,960.85Z"/><path class="cls-2" d="M1975.48,877.32v25.13c-20.58-2.87-38.53,6.22-45.47,22.5v69.64H1904.4V879.71h22.74v18.91C1936,884.5,1954.66,875.41,1975.48,877.32Z"/><path class="cls-2" d="M2057.56,876.6c29,0,47.39,19.62,47.39,46.91v71.08h-25.61V926.86c0-18.67-11.49-27.52-26.8-27.52-14.6,0-25.61,9.81-32.07,19.15v76.1h-25.61V879.71h22.74v15.8A52.45,52.45,0,0,1,2057.56,876.6Z"/><path class="cls-2" d="M2122.18,1030l14.12-59.35h27L2143,1030Z"/><path class="cls-2" d="M2288.51,876.6a91.91,91.91,0,0,1,41.4,9.81v22.5c-9.57-6.46-26.09-11.25-39.73-11.25-10.29,0-21.3,3.11-21.3,12.45,0,22.26,69.17,12,69.17,53.85,0,25.37-23.45,33.74-49.54,33.74-16.75,0-33.75-4.07-45-11V964c12,7.9,29.44,12.21,43.8,12.21s24.89-2.39,24.89-11.73c0-21.3-69.4-12.45-69.4-53.61C2242.8,885.7,2265.77,876.6,2288.51,876.6Z"/><path class="cls-2" d="M2386.86,827.06V892.4a52.3,52.3,0,0,1,37.1-15.8c29,0,47.39,19.62,47.39,46.91v71.08h-25.61V926.86c0-18.67-11.49-27.52-26.8-27.52-14.6,0-25.61,9.81-32.07,19.15v76.1h-25.61V827.06Z"/><path class="cls-2" d="M2608.24,976.4a27.11,27.11,0,0,0,7.66-1.44v18.43a44.72,44.72,0,0,1-16.27,2.87c-10.53,0-18.91-4.07-23-13.4-11.25,9.09-25.37,14.84-43.32,14.84-20.82,0-40.21-11.49-40.21-35.18,0-29.44,27.28-38.53,51.22-38.53a152.71,152.71,0,0,1,29.92,3.35v-4.07c0-14.36-10.53-24.41-30.15-24.41a102.29,102.29,0,0,0-41.4,8.86V884.26c9.09-3.11,25.61-7.66,44-7.66,32.55,0,53.13,15.56,53.13,50.26V968C2599.86,974.49,2603.69,976.4,2608.24,976.4Zm-88.79-15.56c0,11.25,10.05,17,21.54,17a46.7,46.7,0,0,0,33.27-13.64V944.81a134,134,0,0,0-24.89-2.87C2534.77,941.94,2519.45,946.49,2519.45,960.85Z"/><path class="cls-2" d="M2704.68,877.32v25.13c-20.58-2.87-38.53,6.22-45.47,22.5v69.64H2633.6V879.71h22.74v18.91C2665.19,884.5,2683.86,875.41,2704.68,877.32Z"/><path class="cls-2" d="M2771.93,876.6c45.71,0,61.51,36.86,54.09,70.12h-86.4c2.87,20.58,23,29.2,44,29.2a84.07,84.07,0,0,0,36.38-8.14v22c-10.53,5-25.13,7.9-41.16,7.9-35.18,0-65.1-20.1-65.1-60.55C2713.77,895.51,2745.37,876.6,2771.93,876.6Zm1.2,21.3c-17.23,0-32.79,10.29-33.75,29.68H2803C2804.48,917.53,2798.26,897.9,2773.13,897.9Z"/><path class="cls-2" d="M2838.7,1030l14.12-59.35h27L2859.52,1030Z"/><path class="cls-2" d="M2978.7,857.7c-8.38,0-15.8-4.79-15.8-15.32,0-10.05,7.42-15.08,15.8-15.08s15.56,5,15.56,15.08C2994.26,852.91,2987.08,857.7,2978.7,857.7Zm-12.92,136.89V879.71h25.61V994.59Z"/><path class="cls-2" d="M3086.63,876.6c29,0,47.39,19.62,47.39,46.91v71.08h-25.61V926.86c0-18.67-11.49-27.52-26.8-27.52-14.6,0-25.61,9.81-32.07,19.15v76.1h-25.61V879.71h22.74v15.8A52.45,52.45,0,0,1,3086.63,876.6Z"/><path class="cls-2" d="M3204.38,876.6a91.91,91.91,0,0,1,41.4,9.81v22.5c-9.57-6.46-26.09-11.25-39.73-11.25-10.29,0-21.3,3.11-21.3,12.45,0,22.26,69.17,12,69.17,53.85,0,25.37-23.45,33.74-49.54,33.74-16.75,0-33.75-4.07-45-11V964c12,7.9,29.44,12.21,43.8,12.21s24.89-2.39,24.89-11.73c0-21.3-69.4-12.45-69.4-53.61C3158.67,885.7,3181.64,876.6,3204.38,876.6Z"/><path class="cls-2" d="M3344.14,876.6c34.46,0,57,27.52,57,60.55s-22.5,60.55-57,60.55c-20.1,0-33.51-8.85-41.4-17.95v67.49h-25.61V879.71h22.74v17.95C3309,886.65,3322.6,876.6,3344.14,876.6Zm-4.79,22.5c-17.71,0-31.11,11.49-36.62,23.93v28c5.5,12.68,18.91,24.17,36.62,24.17,20.82,0,35.66-15.56,35.66-38.05S3360.17,899.1,3339.35,899.1Z"/><path class="cls-2" d="M3439.39,857.7c-8.38,0-15.8-4.79-15.8-15.32,0-10.05,7.42-15.08,15.8-15.08s15.56,5,15.56,15.08C3454.94,852.91,3447.76,857.7,3439.39,857.7Zm-12.92,136.89V879.71h25.61V994.59Z"/><path class="cls-2" d="M3555.7,877.32v25.13c-20.58-2.87-38.53,6.22-45.47,22.5v69.64h-25.61V879.71h22.74v18.91C3516.21,884.5,3534.88,875.41,3555.7,877.32Z"/><path class="cls-2" d="M3622.95,876.6c45.71,0,61.51,36.86,54.09,70.12h-86.4c2.87,20.58,23,29.2,44,29.2a84.07,84.07,0,0,0,36.38-8.14v22c-10.53,5-25.13,7.9-41.16,7.9-35.18,0-65.1-20.1-65.1-60.55C3564.79,895.51,3596.38,876.6,3622.95,876.6Zm1.2,21.3c-17.23,0-32.79,10.29-33.75,29.68h63.66C3655.49,917.53,3649.27,897.9,3624.14,897.9Z"/><path class="cls-2" d="M3714.84,997.22c-8.62,0-16.27-5-16.27-15.8,0-10.29,7.66-15.32,16.27-15.32s16,5,16,15.32C3730.88,992.2,3723.46,997.22,3714.84,997.22Z"/></g></g></svg>