<svg id="Layer_1" data-name="Layer 1" xmlns="http://www.w3.org/2000/svg" viewBox="0 0 2677.84 302.61"><defs><style>.cls-1{fill:#ea4335;}.cls-2{fill:#4285f4;}.cls-3{fill:#fbbc04;}.cls-4{fill:#0f9d58;}.cls-5{fill:#676c72;}</style></defs><title>gdg_tashkent_horizontal</title><path class="cls-1" d="M212.59,186.12l101.56-58.63a50,50,0,0,0-50-86.56L88.68,142.25Z" transform="translate(-63.69 -34.23)"/><path class="cls-2" d="M289.12,336.83a50,50,0,0,0,25-93.26L138.65,142.25a50,50,0,0,0-50,86.56l175.5,101.32A49.77,49.77,0,0,0,289.12,336.83Z" transform="translate(-63.69 -34.23)"/><path class="cls-3" d="M463.69,336.83a49.77,49.77,0,0,0,24.94-6.7L664.12,228.81,541.79,184,438.66,243.57a50,50,0,0,0,25,93.26Z" transform="translate(-63.69 -34.23)"/><path class="cls-4" d="M639.09,235.51a50,50,0,0,0,25-93.26L488.63,40.93a50,50,0,0,0-50,86.56L614.15,228.81A49.77,49.77,0,0,0,639.09,235.51Z" transform="translate(-63.69 -34.23)"/><path class="cls-5" d="M887.57,285.93a112.2,112.2,0,0,1-41.6-41.6q-15.42-26.51-15.41-58.55T846,127.22a113.19,113.19,0,0,1,98.92-56.7,121.39,121.39,0,0,1,45.77,8.63q21.42,8.63,35.28,24.34l-18.79,18.8a68.13,68.13,0,0,0-26.82-19.88,89,89,0,0,0-35.13-6.93,88.09,88.09,0,0,0-43.6,11.25,85.62,85.62,0,0,0-32.36,31.74q-12.18,20.5-12.18,47.31t12.18,47.3a85.23,85.23,0,0,0,32.51,31.74,88.38,88.38,0,0,0,43.45,11.25q22.18,0,37.14-6.93a83.4,83.4,0,0,0,25.73-18.34A67.35,67.35,0,0,0,1021,230a92,92,0,0,0,6.17-27H945.51V178.69h106a91.2,91.2,0,0,1,1.54,16,123.32,123.32,0,0,1-6.47,39.6,87.4,87.4,0,0,1-20.65,33.75q-30.51,33-81.05,33A112.72,112.72,0,0,1,887.57,285.93Z" transform="translate(-63.69 -34.23)"/><path class="cls-5" d="M1085.73,75.45h66.56q33.9,0,59.17,14a96.56,96.56,0,0,1,38.83,39q13.56,25,13.56,57.33t-13.56,57.32a96.56,96.56,0,0,1-38.83,39q-25.28,14-59.17,14h-66.56Zm66.56,195.69q39.14,0,62.1-22.5t23-62.86q0-40.38-23-62.87t-62.1-22.5h-40.68V271.14Z" transform="translate(-63.69 -34.23)"/><path class="cls-5" d="M1342.43,285.93a112.2,112.2,0,0,1-41.6-41.6q-15.42-26.51-15.41-58.55t15.41-58.56a113.19,113.19,0,0,1,98.92-56.7,121.43,121.43,0,0,1,45.77,8.63q21.4,8.63,35.28,24.34l-18.8,18.8a68,68,0,0,0-26.81-19.88,91.17,91.17,0,0,0-78.74,4.32,85.69,85.69,0,0,0-32.36,31.74q-12.16,20.5-12.17,47.31t12.17,47.3a85.32,85.32,0,0,0,32.52,31.74,88.38,88.38,0,0,0,43.45,11.25q22.18,0,37.13-6.93a83.44,83.44,0,0,0,25.74-18.34,67.35,67.35,0,0,0,12.94-20.8,92,92,0,0,0,6.16-27h-81.66V178.69h106a91.2,91.2,0,0,1,1.54,16,123.59,123.59,0,0,1-6.47,39.6,87.52,87.52,0,0,1-20.65,33.75q-30.51,33-81,33A112.72,112.72,0,0,1,1342.43,285.93Z" transform="translate(-63.69 -34.23)"/><path class="cls-5" d="M1638.89,100.41H1577v-25h149.77v25h-61.63V296.1h-26.2Z" transform="translate(-63.69 -34.23)"/><path class="cls-5" d="M1744.59,294.25a50.68,50.68,0,0,1-20.95-18.64,49.93,49.93,0,0,1-7.4-27q0-25,18.8-39t47.46-14a107.47,107.47,0,0,1,26.35,3.08q12.17,3.08,18.64,7.09v-9.56q0-17.56-12.33-28.2T1784,157.42a52.62,52.62,0,0,0-24.35,5.7A44.57,44.57,0,0,0,1742.13,179l-19.73-14.8A63.18,63.18,0,0,1,1747.83,142a79.77,79.77,0,0,1,35.9-8q32,0,50.39,16.8t18.33,45.76V296.1h-25V273.6h-1.23Q1819.48,285,1805.92,293a58.85,58.85,0,0,1-30.51,8Q1758.15,301,1744.59,294.25Zm57.94-23.11A51.4,51.4,0,0,0,1820.71,253a47.94,47.94,0,0,0,6.78-25,64.75,64.75,0,0,0-18.18-8,82.85,82.85,0,0,0-22.81-3.08q-21.57,0-32.51,8.94A28.48,28.48,0,0,0,1743.05,249a25.7,25.7,0,0,0,9.86,21q9.87,8,25,8A47.41,47.41,0,0,0,1802.53,271.14Z" transform="translate(-63.69 -34.23)"/><path class="cls-5" d="M1893.75,289.17a64.79,64.79,0,0,1-24-30.36l23.42-10.48q5.85,14.19,17.41,21.88a44.87,44.87,0,0,0,25.43,7.71q14.79,0,25.27-6t10.48-17.1q0-9.87-8.32-15.87t-26.2-10.33l-19.11-4.93q-18.79-4.62-30.81-15.72t-12-28.66a37.4,37.4,0,0,1,8.17-23.88,52.25,52.25,0,0,1,21.72-15.87,76.55,76.55,0,0,1,29.28-5.55q20.64,0,36.82,8.94t23,25l-22.8,10.48q-10.48-21-37.29-21a42.19,42.19,0,0,0-22.65,6q-9.71,6-9.71,15.26a17.08,17.08,0,0,0,6.78,14q6.78,5.4,20.34,8.78l22.81,5.86q23.1,5.85,34.82,17.41a38.09,38.09,0,0,1,11.71,28.2,40.78,40.78,0,0,1-8.32,25.42,52.87,52.87,0,0,1-22.5,16.8A81.65,81.65,0,0,1,1936,301Q1910.69,301,1893.75,289.17Z" transform="translate(-63.69 -34.23)"/><path class="cls-5" d="M2020.71,75.45h26.2v65l-1.23,21.58h1.23q6.46-12,20.49-20a60.76,60.76,0,0,1,30.67-8q28.65,0,43.76,16.8t15.1,44.53V296.1h-26.2V199.33q0-21.26-10.78-31.43t-28-10.17a38,38,0,0,0-22.65,7.4,54.43,54.43,0,0,0-22.34,43.45V296.1h-26.2Z" transform="translate(-63.69 -34.23)"/><path class="cls-5" d="M2188.36,75.45h26.19V214.13l74-75.2h33.28v1.23l-61.64,62.26,63.18,92.45v1.23h-31.13l-50.54-75.5-27.12,27.12V296.1h-26.19Z" transform="translate(-63.69 -34.23)"/><path class="cls-5" d="M2362.78,290.25a74.94,74.94,0,0,1-27.89-29.74q-10-19-10-42.68a93.61,93.61,0,0,1,9.4-41.92,76.15,76.15,0,0,1,26.65-30.51Q2378.2,134,2401,134q23.11,0,40.06,10.33a68.49,68.49,0,0,1,26,28.5q9.09,18.19,9.09,41.61a31,31,0,0,1-.92,8h-124.2q.93,17.88,8.63,30.2a50.24,50.24,0,0,0,19.57,18.49,53.11,53.11,0,0,0,24.81,6.16q30.2,0,46.53-28.35l22.19,10.79a79.2,79.2,0,0,1-27.58,30.2Q2427.81,301,2403.15,301,2380.65,301,2362.78,290.25Zm85.68-89.37a51.34,51.34,0,0,0-5.55-19.73,42.23,42.23,0,0,0-15.56-16.64q-10.63-6.78-26.66-6.78-18.49,0-31.28,11.87t-16.8,31.28Z" transform="translate(-63.69 -34.23)"/><path class="cls-5" d="M2500.53,138.93h25v23.12h1.23q6.46-11.72,20.65-19.88a59.54,59.54,0,0,1,30.2-8.17q28.35,0,43.3,16.49t14.94,44.84V296.1h-26.19V199.33q0-21.87-10.48-31.74t-28.66-9.86a38.27,38.27,0,0,0-22.65,7.09,47.59,47.59,0,0,0-15.56,18.64,55.25,55.25,0,0,0-5.55,24.2V296.1h-26.2Z" transform="translate(-63.69 -34.23)"/><path class="cls-5" d="M2702.23,297.9a40.37,40.37,0,0,1-13.71-8.48,38.71,38.71,0,0,1-9.25-13.8q-3.08-7.85-3.08-19.14V162.66h-27.43V138.93h27.43V94.56h26.2v44.37h38.21v23.73h-38.21v87.57q0,13.23,4.93,19.53,5.85,6.93,16.95,6.93a32,32,0,0,0,17.26-5.24V297a41,41,0,0,1-9.4,3.08A66.69,66.69,0,0,1,2720,301,49.23,49.23,0,0,1,2702.23,297.9Z" transform="translate(-63.69 -34.23)"/></svg>