<svg xmlns="http://www.w3.org/2000/svg" xmlns:xlink="http://www.w3.org/1999/xlink" viewBox="0 0 587.76 91.19"><defs><style>.cls-1{fill:none;}.cls-2{fill:#ffc107;}.cls-3{fill:#0f9d58;}.cls-4{fill:#bf360c;}.cls-11,.cls-12,.cls-4,.cls-5,.cls-6{opacity:0.2;isolation:isolate;}.cls-5{fill:#263238;}.cls-6{fill:#fff;}.cls-7{fill:url(#radial-gradient);}.cls-8{fill:url(#radial-gradient-2);}.cls-9{fill:#4285f4;}.cls-10{fill:#db4437;}.cls-11{fill:#1a237e;}.cls-12{fill:#3e2723;}.cls-13{fill:url(#radial-gradient-3);}.cls-14{opacity:0.54;}.cls-15{font-size:82.07px;fill:#818181;font-family:ProductSans-Regular, Product Sans;}.cls-16{letter-spacing:-0.07em;}.cls-17{letter-spacing:0em;}.cls-18{letter-spacing:0em;}.cls-19{letter-spacing:-0.01em;}.cls-20{letter-spacing:-0.02em;}</style><radialGradient id="radial-gradient" cx="65.51" cy="40.81" r="25.16" gradientTransform="matrix(1, 0, 0, -1, -31.83, 106.47)" gradientUnits="userSpaceOnUse"><stop offset="0" stop-color="#bf360c" stop-opacity="0.2"/><stop offset="1" stop-color="#bf360c" stop-opacity="0.02"/></radialGradient><radialGradient id="radial-gradient-2" cx="65.44" cy="40.65" r="25.36" gradientTransform="matrix(1, 0, 0, -1, -31.83, 106.47)" gradientUnits="userSpaceOnUse"><stop offset="0" stop-color="#263238" stop-opacity="0.2"/><stop offset="1" stop-color="#263238" stop-opacity="0.02"/></radialGradient><radialGradient id="radial-gradient-3" cx="31.26" cy="98.42" r="76.35" gradientTransform="matrix(1, 0, 0, -1, 0, 117.18)" gradientUnits="userSpaceOnUse"><stop offset="0" stop-color="#fff" stop-opacity="0.1"/><stop offset="1" stop-color="#fff" stop-opacity="0"/></radialGradient></defs><title>Asset 1</title><g id="Layer_2" data-name="Layer 2"><g id="Layer_4" data-name="Layer 4"><g id="_Group_" data-name="&lt;Group&gt;"><g id="_Group_2" data-name="&lt;Group&gt;"><path class="cls-1" d="M76.38,51.15l-19.07-33H31.83l21,36.37-21,36.37H57.31L76.38,58A6.81,6.81,0,0,0,76.38,51.15Z" transform="translate(-31.83 -10.7)"/><polygon id="_Path_" data-name="&lt;Path&gt;" class="cls-2" points="33.62 65.6 27.57 55.15 13.07 80.23 25.49 80.23 33.78 65.89 33.62 65.6"/><path class="cls-1" d="M76.38,51.15l-19.07-33H31.83l21,36.37-21,36.37H57.31L76.38,58A6.81,6.81,0,0,0,76.38,51.15Z" transform="translate(-31.83 -10.7)"/><polygon class="cls-3" points="21.04 43.85 27.57 55.15 13.07 80.23 0 80.23 21.04 43.85"/><path class="cls-1" d="M76.38,51.15l-19.07-33H31.83l21,36.37-21,36.37H57.31L76.38,58A6.81,6.81,0,0,0,76.38,51.15Z" transform="translate(-31.83 -10.7)"/><polygon class="cls-4" points="25.49 79.66 13.4 79.66 13.07 80.23 25.49 80.23 33.78 65.89 33.62 65.6 25.49 79.66"/><path class="cls-1" d="M76.38,51.15l-19.07-33H31.83l21,36.37-21,36.37H57.31L76.38,58A6.81,6.81,0,0,0,76.38,51.15Z" transform="translate(-31.83 -10.7)"/><polygon class="cls-5" points="0.33 79.66 0 80.23 13.07 80.23 13.4 79.66 0.33 79.66"/><path class="cls-1" d="M76.38,51.15l-19.07-33H31.83l21,36.37-21,36.37H57.31L76.38,58A6.81,6.81,0,0,0,76.38,51.15Z" transform="translate(-31.83 -10.7)"/><polygon class="cls-6" points="0 80.23 0.33 80.23 21.2 44.14 21.04 43.85 0 80.23"/><path class="cls-1" d="M76.38,51.15l-19.07-33H31.83l21,36.37-21,36.37H57.31L76.38,58A6.81,6.81,0,0,0,76.38,51.15Z" transform="translate(-31.83 -10.7)"/><polygon id="_Path_2" data-name="&lt;Path&gt;" class="cls-7" points="33.78 65.89 33.78 65.89 27.57 55.15 26.05 57.78 33.78 65.89"/><path class="cls-1" d="M76.38,51.15l-19.07-33H31.83l21,36.37-21,36.37H57.31L76.38,58A6.81,6.81,0,0,0,76.38,51.15Z" transform="translate(-31.83 -10.7)"/><polygon id="_Path_3" data-name="&lt;Path&gt;" class="cls-8" points="26.05 57.78 27.57 55.15 21.04 43.85 17.92 49.25 26.05 57.78"/><path class="cls-1" d="M76.38,51.15l-19.07-33H31.83l21,36.37-21,36.37H57.31L76.38,58A6.81,6.81,0,0,0,76.38,51.15Z" transform="translate(-31.83 -10.7)"/><g id="_Group_3" data-name="&lt;Group&gt;"><g id="_Group_4" data-name="&lt;Group&gt;"><polygon id="_Path_4" data-name="&lt;Path&gt;" class="cls-9" points="13.07 7.48 0 7.48 33.78 65.89 40.31 54.6 40.32 54.58 13.07 7.48"/></g></g><path class="cls-1" d="M76.38,51.15l-19.07-33H31.83l21,36.37-21,36.37H57.31L76.38,58A6.81,6.81,0,0,0,76.38,51.15Z" transform="translate(-31.83 -10.7)"/><path class="cls-10" d="M76.38,58a6.81,6.81,0,0,0,0-6.82l-19.07-33H44.9l27.24,47.1Z" transform="translate(-31.83 -10.7)"/><path class="cls-1" d="M76.38,51.15l-19.07-33H31.83l21,36.37-21,36.37H57.31L76.38,58A6.81,6.81,0,0,0,76.38,51.15Z" transform="translate(-31.83 -10.7)"/><polygon class="cls-11" points="40.32 54.58 40.15 54.31 33.78 65.32 0.33 7.48 0 7.48 33.78 65.89 40.31 54.6 40.32 54.58"/><path class="cls-1" d="M76.38,51.15l-19.07-33H31.83l21,36.37-21,36.37H57.31L76.38,58A6.81,6.81,0,0,0,76.38,51.15Z" transform="translate(-31.83 -10.7)"/><path class="cls-6" d="M57.31,18.75l19.07,33a6.72,6.72,0,0,1,.89,3.12,6.87,6.87,0,0,0-.89-3.69l-19.07-33H31.83l.33.56Z" transform="translate(-31.83 -10.7)"/><path class="cls-1" d="M76.38,51.15l-19.07-33H31.83l21,36.37-21,36.37H57.31L76.38,58A6.81,6.81,0,0,0,76.38,51.15Z" transform="translate(-31.83 -10.7)"/><path id="_Path_5" data-name="&lt;Path&gt;" class="cls-12" d="M72.14,65.29,76.38,58a6.9,6.9,0,0,0,.89-3.7,6.76,6.76,0,0,1-.89,3.13L72,65Z" transform="translate(-31.83 -10.7)"/><path class="cls-1" d="M76.38,51.15l-19.07-33H31.83l21,36.37-21,36.37H57.31L76.38,58A6.81,6.81,0,0,0,76.38,51.15Z" transform="translate(-31.83 -10.7)"/><path id="_Path_6" data-name="&lt;Path&gt;" class="cls-13" d="M76.38,51.15l-19.07-33H31.83l21,36.37-21,36.37H57.31L76.38,58A6.81,6.81,0,0,0,76.38,51.15Z" transform="translate(-31.83 -10.7)"/></g></g><g id="Layer_4-2" data-name="Layer 4"><g id="_Group_5" data-name="&lt;Group&gt;" class="cls-14"><path id="_Compound_Path_" data-name="&lt;Compound Path&gt;" d="M169.62,24.54H187c17.71,0,28.82,11.75,28.82,28.24S204.71,81,187,81H169.62V24.54Zm17.69,47.93c12.33,0,20-6.84,20-19.69s-7.63-19.68-20-19.68h-9.13V72.47Z" transform="translate(-31.83 -10.7)"/><rect id="_Path_7" data-name="&lt;Path&gt;" class="cls-1" x="72.44" y="12.36" width="174.6" height="61.63"/><path id="_Path_8" data-name="&lt;Path&gt;" d="M162.47,50.22H135.38v8.39h19.1c-.63,4.28-2.11,7.61-4.33,9.84-2.83,2.83-7.26,6-15,6a21.33,21.33,0,0,1-21.32-21.61,21.33,21.33,0,0,1,21.32-21.61A20.71,20.71,0,0,1,149.78,37l5.73-5.72a28.29,28.29,0,0,0-20.37-8.2C118.75,23.06,105,36.4,105,52.79s13.77,29.73,30.16,29.73c8.84,0,15.51-2.9,20.73-8.34,5.37-5.36,7-12.91,7-19A25.18,25.18,0,0,0,162.47,50.22Z" transform="translate(-31.83 -10.7)"/><path id="_Path_9" data-name="&lt;Path&gt;" d="M278.87,50.22H251.78v8.39h19.1c-.63,4.28-2.11,7.61-4.33,9.84-2.83,2.83-7.25,6-15,6a21.33,21.33,0,0,1-21.32-21.61,21.33,21.33,0,0,1,21.32-21.61A20.69,20.69,0,0,1,266.18,37l5.73-5.72a28.29,28.29,0,0,0-20.37-8.2c-16.39,0-30.16,13.34-30.16,29.73s13.77,29.73,30.16,29.73c8.84,0,15.51-2.9,20.74-8.34s7-12.91,7-19A25.18,25.18,0,0,0,278.87,50.22Z" transform="translate(-31.83 -10.7)"/></g></g><text class="cls-15" transform="translate(272.27 70.42)"><tspan class="cls-16">T</tspan><tspan class="cls-17" x="38.16" y="0">a</tspan><tspan class="cls-18" x="79.78" y="0">sh</tspan><tspan class="cls-19" x="161.6" y="0">k</tspan><tspan x="200.01" y="0">e</tspan><tspan class="cls-20" x="244" y="0">n</tspan><tspan x="286.44" y="0">t</tspan></text></g></g></svg>