<svg xmlns="http://www.w3.org/2000/svg" viewBox="0 0 122.35 13.8"><defs><style>.cls-1{fill:#686d74;}.cls-2{fill:#686d73;}</style></defs><title>Asset 3</title><g id="Layer_2" data-name="Layer 2"><g id="Text"><path class="cls-1" d="M6.75,6.91,11.4,4.23A2.28,2.28,0,0,0,9.11.28l-8,4.63Z"/><path class="cls-1" d="M10.25,13.8A2.29,2.29,0,0,0,11.4,9.54l-8-4.63A2.28,2.28,0,0,0,1.09,8.86l8,4.64A2.29,2.29,0,0,0,10.25,13.8Z"/><path class="cls-1" d="M18.23,13.8a2.26,2.26,0,0,0,1.14-.3l8-4.64-5.59-2L17.09,9.54a2.28,2.28,0,0,0,1.14,4.26Z"/><path class="cls-1" d="M26.25,9.17a2.28,2.28,0,0,0,1.14-4.26l-8-4.63a2.28,2.28,0,0,0-2.28,4l8,4.63A2.2,2.2,0,0,0,26.25,9.17Z"/><path class="cls-2" d="M37.61,11.48a5.12,5.12,0,0,1-1.9-1.91A5.2,5.2,0,0,1,35,6.9a5.22,5.22,0,0,1,5.23-5.27A5.5,5.5,0,0,1,42.32,2a4.28,4.28,0,0,1,1.61,1.12L43.08,4a3.07,3.07,0,0,0-1.23-.91,4.17,4.17,0,0,0-3.6.19,4,4,0,0,0-1.48,1.46,4.14,4.14,0,0,0-.56,2.16,4.16,4.16,0,0,0,.56,2.16,4,4,0,0,0,3.47,2,4,4,0,0,0,1.7-.31,3.91,3.91,0,0,0,1.18-.84,3.22,3.22,0,0,0,.59-.95A4.38,4.38,0,0,0,44,7.68H40.26V6.57H45.1a3.61,3.61,0,0,1,.07.73,5.81,5.81,0,0,1-.29,1.81,4.14,4.14,0,0,1-1,1.55,4.82,4.82,0,0,1-3.7,1.51A5.21,5.21,0,0,1,37.61,11.48Z"/><path class="cls-2" d="M46.67,1.85h3a5.55,5.55,0,0,1,2.7.64,4.45,4.45,0,0,1,1.78,1.79,5.42,5.42,0,0,1,.62,2.62,5.45,5.45,0,0,1-.62,2.62,4.48,4.48,0,0,1-1.78,1.78,5.45,5.45,0,0,1-2.7.64h-3Zm3,9a3.87,3.87,0,0,0,2.84-1A3.82,3.82,0,0,0,53.6,6.9,3.86,3.86,0,0,0,52.55,4a3.91,3.91,0,0,0-2.84-1H47.85v7.8Z"/><path class="cls-2" d="M58.4,11.48a5.12,5.12,0,0,1-1.9-1.91,5.2,5.2,0,0,1-.71-2.67A5.22,5.22,0,0,1,61,1.63,5.5,5.5,0,0,1,63.11,2a4.28,4.28,0,0,1,1.61,1.12L63.86,4a3,3,0,0,0-1.22-.91,4.17,4.17,0,0,0-3.6.19,4,4,0,0,0-1.48,1.46A4.14,4.14,0,0,0,57,6.9a4.16,4.16,0,0,0,.56,2.16A4,4,0,0,0,61,11a4,4,0,0,0,1.7-.31,3.91,3.91,0,0,0,1.18-.84,3.22,3.22,0,0,0,.59-.95,4.38,4.38,0,0,0,.28-1.24H61.05V6.57h4.84A3.61,3.61,0,0,1,66,7.3a5.81,5.81,0,0,1-.29,1.81,4.14,4.14,0,0,1-1,1.55A4.82,4.82,0,0,1,61,12.17,5.24,5.24,0,0,1,58.4,11.48Z"/><path class="cls-2" d="M72,3H69.12V1.85H76V3H73.15v8.94H72Z"/><path class="cls-2" d="M76.78,11.86a2.41,2.41,0,0,1-1-.86,2.32,2.32,0,0,1-.33-1.23A2.07,2.07,0,0,1,76.35,8a3.48,3.48,0,0,1,2.16-.64,4.5,4.5,0,0,1,1.21.14,3.1,3.1,0,0,1,.85.32V7.37A1.62,1.62,0,0,0,80,6.09a2.09,2.09,0,0,0-1.43-.49,2.51,2.51,0,0,0-1.11.26,2.08,2.08,0,0,0-.8.73l-.9-.68a2.83,2.83,0,0,1,1.16-1,3.58,3.58,0,0,1,1.64-.37,3.28,3.28,0,0,1,2.3.77,2.69,2.69,0,0,1,.84,2.09v4.55H80.57v-1h-.06a2.54,2.54,0,0,1-.92.89,2.66,2.66,0,0,1-1.4.36A3.18,3.18,0,0,1,76.78,11.86Zm2.65-1.06a2.36,2.36,0,0,0,.83-.83,2.2,2.2,0,0,0,.31-1.14,2.93,2.93,0,0,0-.83-.37,4.07,4.07,0,0,0-1-.14,2.32,2.32,0,0,0-1.49.41,1.32,1.32,0,0,0-.5,1.06,1.19,1.19,0,0,0,.45,1,1.77,1.77,0,0,0,1.14.36,2.23,2.23,0,0,0,1.13-.31Z"/><path class="cls-2" d="M83.6,11.62a3,3,0,0,1-1.1-1.38l1.07-.48a2.22,2.22,0,0,0,.8,1,2.08,2.08,0,0,0,1.16.35,2.34,2.34,0,0,0,1.16-.27.88.88,0,0,0,.48-.79.85.85,0,0,0-.38-.72,3.68,3.68,0,0,0-1.2-.47l-.88-.23a3.06,3.06,0,0,1-1.4-.72,1.69,1.69,0,0,1-.55-1.31,1.68,1.68,0,0,1,.37-1.09,2.56,2.56,0,0,1,1-.73,3.62,3.62,0,0,1,1.34-.25,3.49,3.49,0,0,1,1.69.41,2.32,2.32,0,0,1,1,1.14l-1,.48a1.73,1.73,0,0,0-1.7-1,1.94,1.94,0,0,0-1,.28.78.78,0,0,0-.13,1.33,2.38,2.38,0,0,0,.93.4l1,.27a3.39,3.39,0,0,1,1.59.8A1.73,1.73,0,0,1,88.38,10,1.86,1.86,0,0,1,88,11.13a2.46,2.46,0,0,1-1,.77,3.75,3.75,0,0,1-1.44.26A3.3,3.3,0,0,1,83.6,11.62Z"/><path class="cls-2" d="M89.4,1.85h1.2v3l-.06,1h.06a2.36,2.36,0,0,1,.94-.91,2.74,2.74,0,0,1,1.4-.37,2.56,2.56,0,0,1,2,.77,2.93,2.93,0,0,1,.69,2v4.6h-1.2V7.52a1.89,1.89,0,0,0-.49-1.44,1.8,1.8,0,0,0-1.28-.46,1.7,1.7,0,0,0-1,.33,2.52,2.52,0,0,0-1,2v4H89.41Z"/><path class="cls-2" d="M97.07,1.85h1.19V8.19l3.39-3.43h1.52v0l-2.82,2.85,2.89,4.22v.06h-1.43L99.5,8.49,98.26,9.73v2.21H97.07Z"/><path class="cls-2" d="M105,11.67a3.42,3.42,0,0,1-1.28-1.36,4.18,4.18,0,0,1-.45-2,4.21,4.21,0,0,1,.43-1.91A3.49,3.49,0,0,1,105,5.05a3.25,3.25,0,0,1,1.84-.52,3.51,3.51,0,0,1,1.83.47,3.2,3.2,0,0,1,1.19,1.31,4.25,4.25,0,0,1,.41,1.9,1.47,1.47,0,0,1,0,.36H104.5a2.77,2.77,0,0,0,.4,1.38,2.27,2.27,0,0,0,.89.85,2.49,2.49,0,0,0,1.13.28,2.33,2.33,0,0,0,2.13-1.3l1,.5a3.72,3.72,0,0,1-1.26,1.38,3.84,3.84,0,0,1-3.77,0ZM109,7.59a2.34,2.34,0,0,0-.26-.9,1.86,1.86,0,0,0-.71-.76,2.19,2.19,0,0,0-1.22-.31,2,2,0,0,0-1.43.54,2.66,2.66,0,0,0-.77,1.43Z"/><path class="cls-2" d="M111.34,4.76h1.14v1h0a2.53,2.53,0,0,1,1-.91,2.77,2.77,0,0,1,1.38-.37,2.56,2.56,0,0,1,2,.75,3,3,0,0,1,.68,2.05v4.61h-1.2V7.52a1.9,1.9,0,0,0-.48-1.45,1.81,1.81,0,0,0-1.31-.45,1.66,1.66,0,0,0-1,.32,2.16,2.16,0,0,0-.71.85,2.51,2.51,0,0,0-.26,1.11v4h-1.19Z"/><path class="cls-2" d="M120.56,12a1.71,1.71,0,0,1-.63-.39,1.59,1.59,0,0,1-.42-.63,2.26,2.26,0,0,1-.15-.87V5.84h-1.25V4.76h1.25v-2h1.2v2h1.75V5.84h-1.75v4a1.47,1.47,0,0,0,.23.9,1,1,0,0,0,.77.31,1.39,1.39,0,0,0,.79-.24V12a1.66,1.66,0,0,1-.43.14,2.55,2.55,0,0,1-.55,0A2,2,0,0,1,120.56,12Z"/></g></g></svg>