<?xml version="1.0" encoding="utf-8"?>
<!-- Generator: Adobe Illustrator 21.0.0, SVG Export Plug-In . SVG Version: 6.00 Build 0)  -->
<svg version="1.1" id="Layer_1" xmlns="http://www.w3.org/2000/svg" xmlns:xlink="http://www.w3.org/1999/xlink" x="0px" y="0px"
	 viewBox="0 0 170 170" style="enable-background:new 0 0 170 170;" xml:space="preserve">
<style type="text/css">
	.st0{fill:#D2C988;}
</style>
<g>
	<g>
		<path class="st0" d="M133,131.1v-25.5l17.9-18.7C150.7,103.9,143.9,119.5,133,131.1 M133,98.1l2.4,2.9l-2.4,2.5V98.1z M133,86.6
			h16.2l-12.8,13.3l-3.4-4.1V86.6z M133,75.9l3.4-4.1l12.8,13.3H133V75.9z M133,68.3l2.4,2.5l-2.4,2.9V68.3z M133,40.7
			c10.9,11.6,17.7,27.1,17.9,44.2l-14.6-15.2l-3.3-3.5V40.7z M130.8,130.2c-0.3-0.3-0.5-0.5-0.8-0.8c-0.4-0.4-0.8-0.8-1.1-1.2
			c-0.6-0.7-1.2-1.3-1.8-2c-0.4-0.4-0.7-0.8-1.1-1.2c-0.6-0.8-1.3-1.5-1.9-2.3c-0.3-0.4-0.6-0.7-0.9-1.1c-0.8-1.1-1.6-2.1-2.4-3.2
			V50H96.6c0-0.3-0.1-0.5-0.1-0.8c0-0.2,0-0.3,0-0.4c0-0.5-0.1-0.9-0.1-1.3c0-0.1,0-0.2,0-0.3c0-0.5-0.1-1-0.1-1.4
			c0-0.1,0-0.3,0-0.4c0-0.3,0-0.7-0.1-1c0-0.1,0-0.2,0-0.4c0-0.4,0-0.7-0.1-1.1c0-0.1,0-0.2,0-0.4c0-0.2,0-0.5,0-0.7
			c0-0.1,0-0.2,0-0.3c0-0.2,0-0.4,0-0.6c0-0.2,0-0.3,0-0.5c0-0.1,0-0.2,0-0.3c0-0.1,0-0.1,0-0.2h34.9V130.2z M86,151.8l18.7-17.9
			h2.7h2.3h20.6C118.6,144.8,103.1,151.5,86,151.8 M85.7,133.8H95l4.1,3.4L85.7,150V133.8z M72.7,131.7c0-0.1,0-0.1,0.1-0.2
			c0.1-0.2,0.1-0.4,0.2-0.6c0.1-0.4,0.2-0.7,0.3-1.1c0.1-0.2,0.1-0.5,0.2-0.7c0.1-0.4,0.2-0.7,0.2-1.1c0.1-0.3,0.1-0.5,0.2-0.8
			c0.1-0.4,0.1-0.7,0.2-1.1c0.1-0.3,0.1-0.6,0.2-0.9c0.1-0.4,0.1-0.7,0.2-1.1c0.1-0.3,0.1-0.6,0.2-0.9c0.1-0.4,0.1-0.7,0.2-1.1
			c0.1-0.3,0.1-0.6,0.2-0.9c0.1-0.4,0.1-0.8,0.2-1.2c0.1-0.3,0.1-0.6,0.2-1c0.1-0.4,0.1-0.8,0.2-1.2c0.1-0.3,0.1-0.7,0.2-1
			c0.1-0.4,0.1-0.8,0.2-1.2c0.1-0.3,0.1-0.6,0.2-1c0.1-0.4,0.1-0.9,0.2-1.3c0.1-0.3,0.1-0.7,0.2-1c0.1-0.4,0.1-0.9,0.2-1.3
			c0.1-0.3,0.1-0.6,0.2-0.9c0.1-0.5,0.2-1,0.2-1.5c0-0.2,0.1-0.5,0.1-0.7c0.1-0.6,0.2-1.2,0.3-1.8c0-0.2,0.1-0.3,0.1-0.5
			c0.1-0.6,0.2-1.2,0.3-1.8c0-0.2,0.1-0.4,0.1-0.5c0.2-1.6,0.5-3.1,0.7-4.7c0.9-5.6,1.7-10.9,2.5-15.6c0.2-1.3,0.5-2.8,0.7-4.3
			c0.6-4.5,1.1-9.7,1.5-15.4c0.1-0.9,0.1-1.9,0.2-2.9c0.2-2.9,0.3-6,0.4-9.2c0-0.6,0-1.1,0-1.7c0-0.2,0-0.3,0-0.4c0-0.4,0-0.8,0-1.2
			c0-0.1,0-0.2,0-0.4c0-0.5,0-0.9,0-1.3c0-0.2,0-0.4,0-0.6c0-0.2,0-0.5,0-0.7c0-0.5,0-0.9,0-1.3c0-0.3,0-0.6,0-0.9
			c0-0.1,0-0.1,0-0.2c0-0.9,0-1.7,0-2.3h2c0,0.4,0,0.9,0,1.4v0c0,0.3,0,0.5,0,0.9c0,0.2,0,0.4,0,0.6c0,0.2,0,0.4,0,0.6
			c0,0.4,0,0.9,0,1.4c0,0.1,0,0.3,0,0.4c0,0.3,0,0.5,0,0.8c0,0.3,0,0.6,0,0.9c0,0.3,0,0.6,0,0.9c0,0.3,0,0.6,0,1c0,0.2,0,0.4,0,0.6
			c0,0.5,0,1,0,1.6c0.1,3.9,0.3,8.1,0.5,12.1c0.5,7.7,1.2,14.3,2.2,19.7c0.8,4.6,1.6,9.9,2.5,15.5c0.1,0.7,0.2,1.5,0.3,2.2
			c0.2,1.3,0.4,2.7,0.6,4.1c0,0.1,0,0.3,0.1,0.4c0.1,0.6,0.2,1.2,0.3,1.8c0,0.2,0.1,0.3,0.1,0.5c0.1,0.5,0.2,1,0.2,1.5
			c0,0.3,0.1,0.5,0.1,0.8c0.1,0.5,0.1,0.9,0.2,1.4c0.1,0.3,0.1,0.6,0.2,0.9c0.1,0.4,0.1,0.9,0.2,1.3c0.1,0.3,0.1,0.7,0.2,1
			c0.1,0.4,0.1,0.8,0.2,1.2c0.1,0.4,0.1,0.7,0.2,1.1c0.1,0.4,0.1,0.8,0.2,1.2c0.1,0.4,0.1,0.7,0.2,1c0.1,0.4,0.1,0.8,0.2,1.1
			c0.1,0.4,0.1,0.7,0.2,1.1c0.1,0.4,0.1,0.7,0.2,1.1c0.1,0.4,0.1,0.7,0.2,1.1c0.1,0.3,0.1,0.7,0.2,1c0.1,0.3,0.1,0.7,0.2,1
			c0.1,0.3,0.1,0.7,0.2,1c0.1,0.3,0.1,0.7,0.2,1c0.1,0.3,0.1,0.6,0.2,0.9c0.1,0.3,0.1,0.6,0.2,1c0.1,0.3,0.1,0.6,0.2,0.9
			c0.1,0.3,0.1,0.6,0.2,0.9c0.1,0.3,0.1,0.5,0.2,0.8c0,0.1,0,0.1,0,0.2H72.7z M84.3,150L71,137.2l4.1-3.4h9.3V150z M39.9,133.8h20.6
			h2.3h2.7l3.5,3.3v0l15.2,14.6C67,151.5,51.5,144.8,39.9,133.8 M39.2,40.1h34.9c0,0.1,0,0.1,0,0.2c0,0.1,0,0.1,0,0.2
			c0,0.2,0,0.5,0,0.7c0,0.1,0,0.3,0,0.4c0,0.1,0,0.3,0,0.5c0,0.2,0,0.3,0,0.5c0,0.2,0,0.3,0,0.5c0,0.3,0,0.6-0.1,1
			c0,0.2,0,0.3,0,0.5c0,0.3,0,0.5-0.1,0.8c0,0.2,0,0.3,0,0.5c0,0.4-0.1,0.9-0.1,1.3c0,0.1,0,0.2,0,0.4c0,0.4-0.1,0.8-0.1,1.2
			c0,0.2,0,0.3,0,0.5c0,0.2-0.1,0.5-0.1,0.7H49.1v68.3c-0.8,1.1-1.6,2.2-2.4,3.2c-0.3,0.4-0.6,0.7-0.9,1.1c-0.6,0.8-1.2,1.5-1.9,2.3
			c-0.4,0.4-0.7,0.8-1.1,1.2c-0.6,0.7-1.2,1.3-1.8,2c-0.4,0.4-0.8,0.8-1.1,1.2c-0.3,0.3-0.5,0.5-0.8,0.8V40.1z M84.1,20L68.9,34.6v0
			L65.4,38H39.9C51.5,27,67,20.3,84.1,20 M72.9,38h-5.4l2.5-2.4L72.9,38z M81.9,38L81.9,38h-2.2h-3.4h-1.2L71,34.5l13.3-12.8V38H84
			H81.9z M71.3,64.2c-0.2,0.8-0.3,1.6-0.5,2.4c-0.1,0.4-0.2,0.8-0.2,1.2c-0.3,1.4-0.6,2.8-1,4.2c-0.1,0.4-0.2,0.8-0.3,1.2
			c-0.3,1-0.5,2-0.8,3c-0.1,0.5-0.3,1-0.4,1.5c-0.2,0.9-0.5,1.8-0.8,2.6c-0.2,0.5-0.3,1-0.5,1.5c-0.3,0.9-0.6,1.8-0.9,2.7
			c-0.1,0.4-0.3,0.9-0.4,1.3c-0.4,1.2-0.9,2.4-1.3,3.7c0,0.1-0.1,0.2-0.1,0.2c-0.4,1.1-0.9,2.3-1.3,3.4V64.2H71.3z M60.8,62.1v36
			c-0.7,1.6-1.5,3.2-2.3,4.8c-0.3,0.5-0.5,1-0.8,1.6c-0.6,1.1-1.2,2.2-1.8,3.3c-0.3,0.6-0.7,1.2-1,1.7c-0.6,1-1.2,2-1.8,3
			c-0.4,0.6-0.7,1.1-1.1,1.7c-0.2,0.4-0.5,0.7-0.7,1.1V52.1h21.9c-0.1,1.1-0.3,2.1-0.4,3.2c-0.1,0.6-0.2,1.2-0.2,1.9
			c-0.2,1.6-0.5,3.2-0.8,4.8H60.8z M51.1,119.3c3.6-5,6.8-10.5,9.7-16.4v0.3l2-4.5c4.9-10.8,8.5-22.7,10.9-35.4l0.2-1.3h0
			c0.6-3.6,1.2-7.3,1.6-10.9c0,0,0,0,0,0l0.1-1.1h0c0-0.2,0-0.4,0.1-0.6c0-0.2,0-0.3,0-0.5c0-0.5,0.1-0.9,0.1-1.4c0-0.1,0-0.2,0-0.2
			c0-0.5,0.1-1,0.1-1.4c0-0.2,0-0.3,0-0.5c0-0.3,0-0.6,0.1-1c0-0.1,0-0.2,0-0.4c0-0.4,0-0.7,0.1-1.1c0-0.1,0-0.3,0-0.4
			c0-0.2,0-0.5,0-0.7c0-0.1,0-0.2,0-0.3c0-0.3,0-0.5,0-0.8c0-0.1,0-0.2,0-0.2c0-0.2,0-0.4,0-0.5c0,0,0-0.1,0-0.1h3.4
			c0,0.5,0,1.2-0.1,2.1c0,0.1,0,0.3,0,0.5c0,0.2,0,0.3,0,0.5c0,0.3,0,0.7-0.1,1c0,0.1,0,0.3,0,0.4c0,0.3,0,0.6-0.1,0.9
			c0,0.1,0,0.3,0,0.4c0,0.5-0.1,0.9-0.1,1.4c0,0.1,0,0.2,0,0.2c0,0.4-0.1,0.9-0.1,1.3c0,0.1,0,0.3,0,0.4c0,0.5-0.1,1.1-0.1,1.7
			c-0.3,4.2-0.7,8.2-1.1,12c-0.9,7.3-1.9,13.7-3.2,18.8l-0.6,2.5c-1.1,4.5-2.3,9.7-3.7,15.1c-0.1,0.2-0.1,0.5-0.2,0.7
			c-0.2,0.8-0.4,1.7-0.6,2.5c-0.1,0.3-0.2,0.7-0.3,1c-0.2,0.7-0.4,1.5-0.6,2.2c-0.1,0.4-0.2,0.9-0.3,1.3c-0.2,0.6-0.3,1.3-0.5,1.9
			c-0.1,0.5-0.3,1-0.4,1.6c-0.1,0.6-0.3,1.1-0.4,1.7c-0.2,0.6-0.3,1.1-0.5,1.7c-0.1,0.5-0.3,1-0.4,1.5c-0.2,0.6-0.3,1.1-0.5,1.7
			c-0.1,0.5-0.3,0.9-0.4,1.4c-0.2,0.6-0.3,1.1-0.5,1.7c-0.1,0.4-0.3,0.9-0.4,1.3c-0.2,0.6-0.3,1.1-0.5,1.6c-0.1,0.4-0.2,0.8-0.4,1.2
			c-0.2,0.5-0.3,1-0.5,1.6c-0.1,0.4-0.2,0.8-0.4,1.2c-0.2,0.5-0.3,1-0.5,1.4c-0.1,0.4-0.3,0.8-0.4,1.1c-0.2,0.4-0.3,0.9-0.4,1.3
			c-0.1,0.3-0.2,0.5-0.3,0.8H40.7c0.3-0.3,0.5-0.6,0.8-0.8c0.4-0.4,0.8-0.8,1.2-1.3c0.6-0.7,1.2-1.3,1.8-2c0.4-0.4,0.7-0.8,1.1-1.3
			c0.6-0.8,1.3-1.5,1.9-2.3c0.3-0.4,0.6-0.7,0.9-1.1c0.2-0.3,0.5-0.6,0.7-1v0.1L51.1,119.3z M72.9,133.8l-2.9,2.4l-2.5-2.4H70h2.2
			H72.9z M72.4,122.8c-0.1,0.3-0.1,0.6-0.2,0.9c-0.1,0.4-0.2,0.8-0.2,1.2c-0.1,0.3-0.1,0.6-0.2,0.9c-0.1,0.4-0.1,0.7-0.2,1.1
			c-0.1,0.3-0.1,0.6-0.2,0.9c-0.1,0.3-0.1,0.7-0.2,1c-0.1,0.3-0.1,0.6-0.2,0.8c-0.1,0.3-0.1,0.6-0.2,0.9c-0.1,0.3-0.1,0.5-0.2,0.8
			c0,0.2-0.1,0.3-0.1,0.5h-7.1c0.1-0.2,0.1-0.4,0.2-0.5c0.1-0.4,0.2-0.7,0.4-1.1c0.2-0.5,0.3-0.9,0.5-1.4c0.1-0.4,0.3-0.8,0.4-1.2
			c0.2-0.5,0.3-1,0.5-1.5c0.1-0.4,0.3-0.9,0.4-1.3c0.2-0.5,0.3-1,0.5-1.5c0.1-0.5,0.3-0.9,0.4-1.4c0.1-0.5,0.3-1,0.4-1.5
			c0.1-0.5,0.3-1,0.4-1.5c0.1-0.5,0.3-1,0.4-1.5c0.1-0.5,0.3-1.1,0.4-1.6c0.1-0.5,0.3-1,0.4-1.5c0.2-0.6,0.3-1.1,0.5-1.7
			c0.1-0.5,0.3-1,0.4-1.5c0.2-0.6,0.3-1.2,0.5-1.7c0.1-0.5,0.3-1,0.4-1.5c0.2-0.6,0.3-1.2,0.5-1.8c0.1-0.5,0.2-0.9,0.4-1.4
			c0.2-0.6,0.3-1.2,0.5-1.8c0.1-0.5,0.2-0.9,0.4-1.4c0.1-0.6,0.3-1.2,0.4-1.8c0.1-0.5,0.2-0.9,0.3-1.4c0.1-0.6,0.3-1.2,0.4-1.8
			c0.1-0.4,0.2-0.8,0.3-1.3c0.1-0.6,0.3-1.2,0.4-1.8c0.1-0.4,0.2-0.8,0.3-1.2c0.2-0.6,0.3-1.3,0.5-1.9c0-0.1,0-0.2,0.1-0.3
			c0.4-1.8,0.9-3.6,1.3-5.2l0.6-2.5c1.3-5.2,2.4-11.6,3.2-19c0.4-3.8,0.8-7.9,1.1-12.1c0-0.6,0.1-1.1,0.1-1.6c0-0.2,0-0.3,0-0.5
			c0-0.4,0.1-0.8,0.1-1.2c0-0.1,0-0.3,0-0.4c0-0.5,0.1-0.9,0.1-1.3c0-0.2,0-0.3,0-0.5c0-0.4,0-0.7,0.1-1c0-0.1,0-0.2,0-0.3
			c0-0.4,0-0.8,0.1-1.2c0-0.1,0-0.2,0-0.2c0-0.3,0-0.7,0-1c0,0,0,0,0-0.1c0-0.7,0.1-1.3,0.1-1.8h0.1c0,0.6,0,1.4,0,2.3
			c0,0,0,0,0,0.1c0,0.2,0,0.5,0,0.8c0,0.3,0,0.6,0,1c0,0.1,0,0.3,0,0.4c0,0.3,0,0.6,0,1c0,0.1,0,0.2,0,0.4c0,0.5,0,0.9,0,1.5
			c0,0,0,0.1,0,0.1c0,0.5,0,1,0,1.5c0,0.1,0,0.2,0,0.3c0,0.6,0,1.1,0,1.7v0c-0.1,4.2-0.3,8.2-0.5,12c-0.5,7.6-1.2,14.2-2.1,19.5
			c-0.8,4.6-1.6,10-2.5,15.6c-0.1,0.7-0.2,1.5-0.3,2.2c0,0.2,0,0.3-0.1,0.5c-0.1,0.6-0.2,1.2-0.3,1.8c0,0.2,0,0.3-0.1,0.5
			c-0.1,0.6-0.2,1.2-0.3,1.8c0,0.2-0.1,0.3-0.1,0.5c-0.1,0.6-0.2,1.2-0.3,1.8c0,0.2-0.1,0.4-0.1,0.6c-0.1,0.6-0.2,1.1-0.3,1.7
			c0,0.2-0.1,0.5-0.1,0.7c-0.1,0.5-0.2,1-0.3,1.5c0,0.3-0.1,0.6-0.1,0.9c-0.1,0.5-0.2,0.9-0.2,1.4c-0.1,0.3-0.1,0.6-0.2,0.9
			c-0.1,0.5-0.2,0.9-0.2,1.3c-0.1,0.3-0.1,0.6-0.2,0.9c-0.1,0.5-0.2,0.9-0.2,1.3c-0.1,0.3-0.1,0.6-0.2,0.9c-0.1,0.4-0.2,0.9-0.2,1.3
			c-0.1,0.3-0.1,0.6-0.2,0.9C72.6,122,72.5,122.4,72.4,122.8 M102.6,133.8l-2.5,2.4l-2.9-2.4h0.7 M99.5,131.7c0-0.1-0.1-0.3-0.1-0.4
			c-0.1-0.3-0.2-0.6-0.2-0.9c-0.1-0.3-0.1-0.5-0.2-0.8c-0.1-0.3-0.2-0.7-0.2-1c-0.1-0.3-0.1-0.5-0.2-0.8c-0.1-0.4-0.2-0.7-0.2-1.1
			c-0.1-0.3-0.1-0.5-0.2-0.8c-0.1-0.4-0.2-0.8-0.2-1.2c-0.1-0.3-0.1-0.5-0.2-0.8c-0.1-0.4-0.2-0.8-0.2-1.3c0-0.3-0.1-0.5-0.1-0.8
			c-0.1-0.4-0.2-0.9-0.2-1.3c0-0.3-0.1-0.5-0.1-0.8c-0.1-0.5-0.2-0.9-0.2-1.4c0-0.3-0.1-0.5-0.1-0.8c-0.1-0.5-0.2-0.9-0.2-1.4
			c0-0.3-0.1-0.5-0.1-0.8c-0.1-0.5-0.2-1-0.3-1.5c0-0.2-0.1-0.5-0.1-0.7c-0.1-0.5-0.2-1-0.3-1.5c0-0.3-0.1-0.5-0.1-0.8
			c-0.1-0.5-0.2-1-0.2-1.5c-0.1-0.4-0.1-0.7-0.2-1.1c-0.1-0.4-0.1-0.8-0.2-1.2c-0.1-0.4-0.1-0.7-0.2-1.1c-0.1-0.4-0.1-0.8-0.2-1.2
			c0-0.3-0.1-0.6-0.1-0.9c-0.1-0.5-0.1-0.9-0.2-1.4c0-0.1,0-0.1,0-0.2c-0.2-1.4-0.4-2.9-0.7-4.3c-0.9-5.6-1.7-10.9-2.5-15.5
			c-0.9-5.3-1.6-11.9-2.1-19.5c-0.3-4-0.4-8.1-0.5-12c0-0.6,0-1.1,0-1.6c0-0.2,0-0.3,0-0.5c0-0.4,0-0.8,0-1.2c0-0.1,0-0.2,0-0.3
			c0-0.5,0-0.9,0-1.3c0-0.2,0-0.4,0-0.6c0-0.2,0-0.5,0-0.7c0-0.5,0-1,0-1.4c0,0,0,0,0,0c0-0.3,0-0.5,0-0.8c0,0,0,0,0-0.1
			c0-1,0-1.8,0-2.3h0.1c0,0.7,0.1,1.7,0.1,2.9c0,0,0,0,0,0c0,0.8,0.1,1.7,0.1,2.7c0,0.1,0,0.1,0,0.2c0,0.5,0.1,1,0.1,1.5
			c0,0,0,0,0,0c0,0.5,0.1,1,0.1,1.5c0,0.1,0,0.3,0,0.4c0,0.6,0.1,1.1,0.1,1.7c0.3,4.4,0.7,8.4,1.1,12.1c0.9,7.4,2,13.8,3.2,19
			l0.6,2.4c0.3,1.2,0.6,2.4,0.9,3.6c0.2,0.7,0.3,1.4,0.5,2.1c0.1,0.3,0.1,0.6,0.2,0.9c0.2,0.7,0.3,1.3,0.5,2
			c0.1,0.5,0.2,0.9,0.3,1.4c0.1,0.6,0.3,1.2,0.4,1.7c0.1,0.5,0.2,0.9,0.3,1.4c0.1,0.6,0.3,1.2,0.4,1.8c0.1,0.5,0.2,1,0.4,1.5
			c0.1,0.6,0.3,1.2,0.4,1.8c0.1,0.5,0.3,1,0.4,1.5c0.1,0.6,0.3,1.1,0.4,1.7c0.1,0.5,0.3,1.1,0.4,1.6c0.1,0.5,0.3,1.1,0.4,1.6
			c0.1,0.5,0.3,1.1,0.4,1.6c0.1,0.5,0.3,1.1,0.4,1.6c0.1,0.5,0.3,1.1,0.4,1.6c0.1,0.5,0.3,1.1,0.4,1.6c0.1,0.5,0.3,1.1,0.4,1.6
			c0.1,0.5,0.3,1,0.4,1.5c0.1,0.5,0.3,1,0.4,1.5c0.1,0.5,0.3,1,0.4,1.5c0.1,0.5,0.3,1,0.4,1.5c0.1,0.5,0.3,1,0.4,1.4
			c0.1,0.5,0.3,0.9,0.4,1.4c0.1,0.5,0.3,0.9,0.4,1.4c0.1,0.4,0.3,0.9,0.4,1.3c0.1,0.4,0.3,0.9,0.4,1.3c0.1,0.4,0.3,0.8,0.4,1.2
			c0.1,0.2,0.1,0.3,0.2,0.5H99.5z M107.2,64.2v28.9c-0.5-1.1-0.9-2.2-1.3-3.4c0-0.1,0-0.1-0.1-0.2c-0.5-1.2-0.9-2.5-1.3-3.7
			c-0.1-0.4-0.3-0.9-0.4-1.3c-0.3-0.9-0.6-1.8-0.9-2.7c-0.2-0.5-0.3-1-0.4-1.5c-0.3-0.9-0.5-1.8-0.8-2.7c-0.1-0.5-0.3-1-0.4-1.4
			c-0.3-1-0.5-2.1-0.8-3.1c-0.1-0.3-0.2-0.7-0.3-1c-0.3-1.4-0.7-2.8-1-4.2c-0.1-0.4-0.1-0.7-0.2-1.1c-0.2-0.8-0.3-1.7-0.5-2.5H107.2
			z M98.3,62.1c-0.3-1.6-0.6-3.2-0.8-4.8c-0.1-0.6-0.2-1.2-0.2-1.8c-0.1-1.1-0.3-2.2-0.4-3.2h21.9v63.1c-0.2-0.4-0.5-0.7-0.7-1
			c-0.4-0.6-0.7-1.2-1.1-1.7c-0.6-1-1.2-1.9-1.8-2.9c-0.3-0.6-0.7-1.2-1-1.8c-0.6-1.1-1.2-2.2-1.8-3.3c-0.3-0.5-0.6-1-0.8-1.6
			c-0.8-1.6-1.6-3.2-2.3-4.8v-36H98.3z M96.4,63.3c0.3,1.6,0.6,3.2,0.9,4.7c0.6,2.7,1.2,5.4,1.9,8.1c2.1,7.9,4.8,15.5,8,22.6
			c0,0,0,0,0,0l2,4.5V103c0.2,0.4,0.4,0.8,0.6,1.2c2.7,5.4,5.8,10.4,9.1,15.1c0,0,0,0,0,0l1.9,2.7v-0.1c0.2,0.3,0.5,0.6,0.7,0.9
			c0.3,0.4,0.6,0.8,0.9,1.1c0.6,0.8,1.2,1.5,1.9,2.3c0.4,0.4,0.7,0.8,1.1,1.3c0.6,0.7,1.2,1.4,1.8,2c0.4,0.4,0.8,0.8,1.2,1.3
			c0.3,0.3,0.5,0.6,0.8,0.8h-20.5c-0.1-0.3-0.2-0.6-0.3-0.8c-0.1-0.4-0.3-0.8-0.4-1.2c-0.1-0.4-0.3-0.8-0.4-1.3
			c-0.1-0.4-0.3-0.9-0.4-1.3c-0.1-0.4-0.3-0.9-0.4-1.3c-0.1-0.5-0.3-0.9-0.4-1.4c-0.1-0.5-0.3-0.9-0.4-1.4c-0.1-0.5-0.3-1-0.4-1.5
			c-0.1-0.5-0.3-1-0.4-1.4c-0.1-0.5-0.3-1-0.5-1.6c-0.1-0.5-0.3-1-0.4-1.5c-0.2-0.5-0.3-1.1-0.5-1.6c-0.1-0.5-0.3-1-0.4-1.5
			c-0.2-0.6-0.3-1.1-0.5-1.7c-0.1-0.5-0.3-1-0.4-1.4c-0.2-0.6-0.3-1.2-0.5-1.8c-0.1-0.5-0.2-0.9-0.4-1.4c-0.2-0.6-0.3-1.2-0.5-1.9
			c-0.1-0.4-0.2-0.9-0.3-1.3c-0.2-0.7-0.3-1.3-0.5-2c-0.1-0.3-0.2-0.7-0.3-1c-0.2-0.7-0.4-1.5-0.6-2.2c-0.1-0.2-0.1-0.5-0.2-0.7
			c-0.2-0.8-0.4-1.7-0.6-2.5c0,0,0-0.1,0-0.1c-0.4-1.6-0.8-3.1-1.1-4.6c-0.6-2.5-1.2-4.8-1.7-7l-0.6-2.4C94.1,76.7,93,70.3,92.2,63
			c-0.4-3.7-0.8-7.6-1.1-12c0-0.5-0.1-1.1-0.1-1.6c0-0.2,0-0.4,0-0.6c0-0.3,0-0.7-0.1-1c0-0.3,0-0.5,0-0.8c0-0.3,0-0.7-0.1-1
			c0-0.3,0-0.5,0-0.8c0-0.1,0-0.3,0-0.4c0-0.9-0.1-1.6-0.1-2.3c0-0.1,0-0.2,0-0.3c0-0.2,0-0.4,0-0.6c0,0,0-0.1,0-0.1
			c0-0.4,0-0.7,0-1c0-0.1,0-0.2,0-0.3c0-0.1,0-0.1,0-0.2h3.4c0,0,0,0,0,0c0,0.2,0,0.4,0,0.7c0,0,0,0.1,0,0.1c0,0.3,0,0.6,0,0.9
			c0,0,0,0.1,0,0.1c0,0.3,0,0.6,0,0.9c0,0.1,0,0.2,0,0.2c0,0.4,0,0.8,0.1,1.2c0,0.1,0,0.2,0,0.2c0,0.3,0,0.7,0.1,1.1
			c0,0.1,0,0.3,0,0.4c0,0.5,0.1,0.9,0.1,1.4c0,0.1,0,0.2,0,0.2c0,0.4,0.1,0.9,0.1,1.4c0,0.2,0,0.3,0,0.5c0,0.2,0,0.4,0.1,0.6h0
			l0.1,1.2c0.4,3.6,0.9,7.3,1.6,10.9h0L96.4,63.3z M85.7,21.8l13.3,12.8L95,38h-1.2h-3.4h-2.1h0h-2.1h-0.3V21.8z M102.6,38h-5.4
			l2.9-2.4L102.6,38z M130.2,38h-25.5L86,20C103.1,20.3,118.6,27,130.2,38 M37.1,66.2l-3.3,3.5L19.1,85c0.2-17.1,7-32.6,17.9-44.2
			V66.2z M37.1,73.7l-2.4-2.9l2.4-2.5V73.7z M37.1,85.2H20.9l12.8-13.3l3.4,4.1V85.2z M37.1,95.9l-3.4,4.1L20.9,86.6h16.2V95.9z
			 M37.1,103.5l-2.4-2.5l2.4-2.9V103.5z M37.1,131.1c-10.9-11.6-17.7-27.1-17.9-44.2l17.9,18.7V131.1z M133,38.7
			c-0.2-0.2-0.5-0.5-0.7-0.7C120.1,26,103.4,18.6,85,18.6C66.6,18.6,50,26,37.8,38c-0.2,0.2-0.5,0.5-0.7,0.7
			c-12,12.2-19.4,28.8-19.4,47.2c0,18.2,7.3,34.7,19,46.8c0.1,0.1,0.3,0.3,0.4,0.4c0.2,0.2,0.5,0.5,0.7,0.7c0.1,0.1,0.3,0.2,0.4,0.4
			c12.1,11.8,28.6,19,46.8,19c18.2,0,34.7-7.3,46.8-19c0.1-0.1,0.3-0.2,0.4-0.4c0.2-0.2,0.5-0.5,0.7-0.7c0.1-0.1,0.3-0.3,0.4-0.4
			c11.7-12.1,19-28.6,19-46.8C152.3,67.5,144.9,50.9,133,38.7"/>
		<path class="st0" d="M85,5.6c0.7,1.3,1.8,2.3,3.1,3.1c-1.3,0.7-2.3,1.8-3.1,3.1c-0.7-1.3-1.8-2.3-3.1-3.1C83.2,8,84.3,6.9,85,5.6
			 M84.3,13.8l0.7,2.3l0,0l0,0l0.7-2.3c0.6-2.1,2.3-3.8,4.4-4.4l2.3-0.7L90.1,8c-2.1-0.6-3.8-2.3-4.4-4.4L85,1.3l-0.7,2.3
			c-0.6,2.1-2.3,3.8-4.4,4.4l-2.3,0.7l2.3,0.7C82.1,10,83.7,11.7,84.3,13.8"/>
	</g>
	<polygon class="st0" points="9,88.8 9.2,90.4 5.9,92.7 9.6,94.3 9.7,95.9 2.3,96.9 2.2,95.2 7,94.6 4,93.3 3.9,92.4 6.6,90.5 
		1.7,90.8 1.6,89.2 	"/>
	<rect x="3" y="99.3" transform="matrix(0.9821 -0.1881 0.1881 0.9821 -18.7207 3.0548)" class="st0" width="7.5" height="1.7"/>
	<g>
		<path class="st0" d="M8.6,106.3c0.1,0.3,0.2,0.5,0.5,0.6c0.2,0.1,0.5,0.1,0.8,0.1c0.3-0.1,0.5-0.2,0.6-0.5
			c0.1-0.2,0.1-0.5,0.1-0.8l-0.3-1l-1.9,0.5L8.6,106.3z M11.1,102.8l0.7,2.7c0.1,0.4,0.2,0.8,0.1,1.2c0,0.3-0.1,0.7-0.3,0.9
			c-0.1,0.3-0.3,0.5-0.6,0.7c-0.2,0.2-0.5,0.3-0.8,0.4c-0.5,0.1-0.9,0.1-1.3,0c-0.4-0.1-0.8-0.3-1.1-0.6l-2.4,2.4L5,108.7l2.3-2.1
			L7,105.7l-2.6,0.7l-0.4-1.6L11.1,102.8z"/>
	</g>
	<polygon class="st0" points="7.5,112.3 13.3,114.4 11.9,110.8 13.3,110.3 15.5,115.8 14.2,116.3 8.4,114.3 9.9,118.1 8.5,118.6 
		6.3,112.8 	"/>
	<g>
		<path class="st0" d="M12.5,123.5c0.2,0.3,0.3,0.5,0.6,0.7c0.2,0.2,0.5,0.3,0.8,0.3c0.3,0.1,0.6,0.1,0.9,0c0.3,0,0.6-0.1,0.9-0.3
			c0.3-0.2,0.5-0.3,0.7-0.6c0.2-0.2,0.4-0.5,0.5-0.7c0.1-0.3,0.1-0.5,0.1-0.8c0-0.3-0.1-0.6-0.2-0.9c-0.2-0.3-0.3-0.5-0.6-0.7
			c-0.2-0.2-0.5-0.3-0.8-0.4c-0.3-0.1-0.6-0.1-0.9,0c-0.3,0-0.6,0.1-0.9,0.3c-0.3,0.2-0.5,0.3-0.7,0.6c-0.2,0.2-0.4,0.5-0.5,0.7
			c-0.1,0.3-0.2,0.5-0.1,0.8C12.3,122.9,12.4,123.2,12.5,123.5 M11.1,124.3c-0.3-0.5-0.4-1-0.5-1.5c0-0.5,0-1,0.2-1.5
			c0.1-0.5,0.4-0.9,0.7-1.3c0.3-0.4,0.7-0.7,1.2-1c0.5-0.3,1-0.4,1.5-0.5c0.5,0,1,0,1.5,0.1c0.5,0.1,0.9,0.4,1.3,0.7
			c0.4,0.3,0.7,0.7,1,1.2c0.3,0.5,0.4,1,0.5,1.5c0,0.5,0,1-0.2,1.5c-0.1,0.5-0.4,0.9-0.7,1.3c-0.3,0.4-0.7,0.7-1.2,1
			c-0.5,0.3-1,0.4-1.5,0.5c-0.5,0-1,0-1.5-0.1c-0.5-0.1-0.9-0.4-1.3-0.7C11.7,125.2,11.4,124.8,11.1,124.3"/>
		<path class="st0" d="M22.7,128.7l1,1.4l-3.5,2.7c-0.2,0.1-0.4,0.3-0.5,0.5c-0.1,0.2-0.2,0.3-0.3,0.5c0,0.2,0,0.4,0,0.6
			c0,0.2,0.2,0.4,0.3,0.6c0.2,0.2,0.3,0.4,0.5,0.5c0.2,0.1,0.3,0.1,0.5,0.2c0.2,0,0.4,0,0.6-0.1c0.2-0.1,0.4-0.2,0.6-0.3l3.5-2.7
			l1,1.4l-3.7,2.8c-0.4,0.3-0.7,0.5-1.1,0.6c-0.4,0.1-0.8,0.1-1.1,0.1c-0.4-0.1-0.7-0.2-1.1-0.4c-0.4-0.2-0.7-0.5-1-0.9
			c-0.3-0.4-0.5-0.8-0.6-1.2c-0.1-0.4-0.2-0.8-0.1-1.2c0-0.4,0.2-0.7,0.4-1.1c0.2-0.3,0.5-0.6,0.8-0.9L22.7,128.7z"/>
	</g>
	<polygon class="st0" points="28.1,135.5 29.2,136.8 24.9,140.8 27.3,143.4 26.2,144.5 22.6,140.6 	"/>
	<g>
		<path class="st0" d="M33,140.7l1.3,1.1l-2.9,3.3c-0.2,0.2-0.3,0.4-0.4,0.6c-0.1,0.2-0.1,0.4-0.1,0.5c0,0.2,0,0.4,0.1,0.5
			c0.1,0.2,0.2,0.4,0.4,0.5c0.2,0.2,0.4,0.3,0.6,0.3c0.2,0.1,0.4,0.1,0.6,0c0.2,0,0.3-0.1,0.5-0.2c0.2-0.1,0.3-0.3,0.5-0.5l2.9-3.4
			l1.3,1.1l-3,3.5c-0.3,0.3-0.6,0.6-1,0.8c-0.4,0.2-0.7,0.3-1.1,0.3c-0.4,0-0.8,0-1.2-0.2c-0.4-0.1-0.8-0.4-1.1-0.7
			c-0.4-0.3-0.6-0.6-0.8-1c-0.2-0.4-0.3-0.7-0.3-1.1c0-0.4,0-0.8,0.2-1.1c0.1-0.4,0.3-0.7,0.6-1.1L33,140.7z"/>
		<path class="st0" d="M41,151.2l2.4,1.6l-1.8,2.7c-0.5,0.1-1,0-1.6-0.1c-0.5-0.1-1.1-0.4-1.6-0.8c-0.5-0.3-0.9-0.7-1.2-1.2
			c-0.3-0.4-0.5-0.9-0.6-1.3c-0.1-0.5-0.1-1,0.1-1.4c0.1-0.5,0.3-1,0.7-1.5c0.3-0.5,0.7-0.8,1.1-1.1c0.4-0.3,0.9-0.5,1.4-0.6
			c0.5-0.1,1-0.1,1.5,0c0.5,0.1,1,0.3,1.5,0.6c0.6,0.4,1,0.8,1.3,1.3c0.3,0.5,0.4,1,0.5,1.6l-1.6,0.3c0-0.4-0.1-0.7-0.3-1
			c-0.1-0.3-0.4-0.6-0.7-0.8c-0.3-0.2-0.6-0.3-0.9-0.4c-0.3,0-0.6,0-0.9,0c-0.3,0.1-0.5,0.2-0.8,0.4c-0.2,0.2-0.5,0.4-0.6,0.7
			c-0.2,0.3-0.3,0.6-0.4,0.9c-0.1,0.3-0.1,0.6,0,0.9c0.1,0.3,0.2,0.5,0.3,0.8s0.4,0.5,0.6,0.6c0.2,0.2,0.5,0.3,0.7,0.4
			c0.2,0.1,0.5,0.1,0.7,0.1l0.5-0.8l-1.1-0.7L41,151.2z"/>
		<path class="st0" d="M48.4,155.1c0.1,0.1,0.2,0.1,0.4,0.1c0.1,0,0.2,0,0.4,0c0.1,0,0.2-0.1,0.3-0.1c0.1-0.1,0.2-0.2,0.3-0.3
			c0.1-0.1,0.1-0.3,0.1-0.4c0-0.1,0-0.2-0.1-0.3c-0.1-0.1-0.1-0.2-0.2-0.3c-0.1-0.1-0.2-0.1-0.3-0.2l-0.9-0.5l-0.8,1.5L48.4,155.1z
			 M47,158c0.1,0.1,0.2,0.1,0.4,0.2c0.1,0.1,0.3,0.1,0.4,0.1c0.1,0,0.3,0,0.4-0.1c0.1-0.1,0.3-0.2,0.4-0.4c0.1-0.2,0.1-0.3,0.1-0.5
			c0-0.2-0.1-0.3-0.1-0.4c-0.1-0.1-0.2-0.2-0.3-0.3c-0.1-0.1-0.2-0.2-0.3-0.2l-1-0.5l-0.9,1.7L47,158z M47.4,151.3l2.5,1.3
			c0.4,0.2,0.7,0.4,1,0.7c0.2,0.2,0.4,0.5,0.5,0.7c0.1,0.3,0.1,0.5,0.1,0.8c0,0.3-0.1,0.5-0.2,0.7c-0.1,0.2-0.2,0.4-0.4,0.5
			c-0.2,0.1-0.3,0.2-0.5,0.3c-0.2,0.1-0.3,0.1-0.5,0.1c-0.1,0-0.3,0-0.4,0c0.1,0.1,0.2,0.2,0.3,0.4c0.1,0.1,0.2,0.3,0.3,0.5
			c0.1,0.2,0.1,0.4,0.1,0.7c0,0.2-0.1,0.5-0.2,0.8c-0.2,0.3-0.4,0.6-0.6,0.8c-0.2,0.2-0.5,0.3-0.8,0.3c-0.3,0-0.6,0-1-0.1
			c-0.4-0.1-0.7-0.3-1.1-0.5l-2.5-1.3L47.4,151.3z"/>
	</g>
	<polygon class="st0" points="54.5,154.8 59.3,156.7 58.7,158.1 55.6,156.8 55,158.2 57.5,159.1 57,160.5 54.5,159.5 53.9,161 
		57.3,162.3 56.7,163.7 51.8,161.7 	"/>
	<polygon class="st0" points="61.6,157.5 63.2,158 62.4,160.8 65.6,158.6 67.5,159.2 64.3,161.3 65.8,166.5 63.9,165.9 62.8,162.2 
		61.9,162.8 61.2,165.1 59.6,164.7 	"/>
	
		<rect x="69.6" y="163.2" transform="matrix(0.1481 -0.989 0.989 0.1481 -99.7694 212.2164)" class="st0" width="7.5" height="1.7"/>
	<polygon class="st0" points="77.2,160.8 78.9,160.9 81.8,166 82.1,161.1 83.7,161.2 83.3,168.7 81.8,168.6 78.8,163.5 78.5,168.4 
		76.8,168.3 	"/>
	<polygon class="st0" points="86.2,161.2 87.8,161.1 91.4,165.8 91.1,160.9 92.7,160.8 93.2,168.3 91.6,168.4 88.1,163.7 
		88.3,168.6 86.7,168.7 	"/>
	<g>
		<path class="st0" d="M99.9,165.9c0.3-0.1,0.6-0.2,0.8-0.3c0.2-0.2,0.4-0.4,0.6-0.6c0.1-0.2,0.2-0.5,0.3-0.8c0-0.3,0-0.6,0-0.9
			c-0.1-0.3-0.2-0.6-0.3-0.9c-0.1-0.3-0.3-0.5-0.5-0.7c-0.2-0.2-0.5-0.3-0.7-0.4c-0.3-0.1-0.6-0.1-0.9,0c-0.3,0.1-0.6,0.2-0.8,0.3
			c-0.2,0.2-0.4,0.4-0.6,0.6c-0.1,0.2-0.2,0.5-0.3,0.8c0,0.3,0,0.6,0,0.9c0.1,0.3,0.2,0.6,0.3,0.9c0.1,0.3,0.3,0.5,0.5,0.7
			c0.2,0.2,0.5,0.3,0.8,0.4C99.2,165.9,99.5,165.9,99.9,165.9 M100.1,167.4c-0.5,0.1-1.1,0.1-1.6,0c-0.5-0.1-1-0.3-1.4-0.6
			c-0.4-0.3-0.7-0.6-1-1.1c-0.3-0.4-0.5-0.9-0.6-1.5c-0.1-0.5-0.1-1.1,0-1.6c0.1-0.5,0.3-1,0.6-1.4c0.3-0.4,0.6-0.8,1.1-1
			c0.4-0.3,0.9-0.5,1.5-0.6c0.5-0.1,1.1-0.1,1.6,0c0.5,0.1,1,0.3,1.4,0.6c0.4,0.3,0.7,0.6,1,1.1c0.3,0.4,0.5,0.9,0.6,1.5
			c0.1,0.5,0.1,1.1,0,1.6c-0.1,0.5-0.3,1-0.6,1.4c-0.3,0.4-0.6,0.8-1.1,1C101.2,167.2,100.7,167.3,100.1,167.4"/>
	</g>
	<polygon class="st0" points="103.8,158.9 105.6,158.4 108.9,163 109,157.3 110.7,156.8 110.3,164.7 108.6,165.2 	"/>
	<path class="st0" d="M117,159l-1.9-2.2l0.2,3L117,159z M113.6,155.6l1.7-0.7l5.4,5.8l-1.7,0.7l-1.2-1.4l-2.4,1l0.1,1.8l-1.6,0.7
		L113.6,155.6z"/>
	<polygon class="st0" points="120.9,153.9 118.7,155 118,153.7 123.8,150.6 124.5,151.9 122.4,153.1 125.2,158.3 123.7,159.1 	"/>
	
		<rect x="127.4" y="148.4" transform="matrix(0.8402 -0.5422 0.5422 0.8402 -61.9941 93.8616)" class="st0" width="1.7" height="7.5"/>
	<g>
		<path class="st0" d="M135.7,149.7c0.3-0.2,0.5-0.4,0.6-0.7s0.2-0.5,0.2-0.8c0-0.3,0-0.6-0.1-0.8c-0.1-0.3-0.2-0.6-0.4-0.8
			c-0.2-0.3-0.4-0.5-0.7-0.6c-0.3-0.2-0.5-0.3-0.8-0.3c-0.3-0.1-0.6,0-0.8,0c-0.3,0.1-0.6,0.2-0.8,0.4c-0.3,0.2-0.5,0.4-0.6,0.7
			c-0.1,0.3-0.2,0.5-0.2,0.8c0,0.3,0,0.6,0.1,0.8c0.1,0.3,0.2,0.6,0.4,0.8c0.2,0.3,0.4,0.5,0.7,0.6c0.3,0.2,0.5,0.3,0.8,0.3
			c0.3,0.1,0.6,0.1,0.8,0C135.2,150,135.5,149.9,135.7,149.7 M136.7,151c-0.4,0.3-0.9,0.6-1.4,0.7c-0.5,0.1-1,0.2-1.5,0.1
			c-0.5-0.1-1-0.2-1.4-0.5c-0.5-0.3-0.8-0.6-1.2-1c-0.3-0.4-0.6-0.9-0.7-1.4c-0.1-0.5-0.2-1-0.1-1.5c0.1-0.5,0.2-1,0.5-1.4
			c0.3-0.5,0.6-0.8,1-1.2c0.4-0.3,0.9-0.6,1.4-0.7c0.5-0.1,1-0.2,1.5-0.1c0.5,0.1,1,0.2,1.4,0.5c0.5,0.3,0.8,0.6,1.2,1
			c0.3,0.4,0.6,0.9,0.7,1.4c0.1,0.5,0.2,1,0.1,1.5c-0.1,0.5-0.2,1-0.5,1.4C137.5,150.2,137.1,150.6,136.7,151"/>
	</g>
	<polygon class="st0" points="136.6,141 137.8,139.9 143.5,141 140.1,137.6 141.2,136.4 146.5,141.7 145.4,142.8 139.6,141.6 
		143.1,145.1 141.9,146.3 	"/>
	<g>
		<path class="st0" d="M153.8,130.1c0.1,0.3,0.1,0.5,0.2,0.8c0,0.3,0,0.6,0,0.9c0,0.3-0.1,0.6-0.2,0.9c-0.1,0.3-0.3,0.6-0.5,0.9
			c-0.3,0.5-0.7,0.8-1.1,1.1c-0.4,0.3-0.9,0.4-1.4,0.5c-0.5,0.1-1,0-1.5-0.1c-0.5-0.1-1-0.4-1.4-0.7c-0.4-0.3-0.8-0.7-1.1-1.1
			c-0.3-0.4-0.5-0.9-0.6-1.4c-0.1-0.5-0.1-1,0-1.5c0.1-0.5,0.3-1,0.7-1.5c0.4-0.6,0.9-1,1.4-1.3s1.1-0.4,1.6-0.4l0.2,1.6
			c-0.4,0-0.7,0.1-1.1,0.2c-0.3,0.1-0.6,0.4-0.9,0.7c-0.2,0.3-0.3,0.6-0.4,0.8c-0.1,0.3-0.1,0.6,0,0.9c0.1,0.3,0.2,0.5,0.4,0.8
			c0.2,0.3,0.4,0.5,0.7,0.7c0.3,0.2,0.5,0.3,0.8,0.4c0.3,0.1,0.6,0.1,0.9,0.1c0.3,0,0.5-0.1,0.8-0.3c0.3-0.1,0.5-0.3,0.7-0.6
			c0.2-0.2,0.3-0.4,0.3-0.6c0.1-0.2,0.1-0.4,0.1-0.6c0-0.2,0-0.4,0-0.5c0-0.2-0.1-0.3-0.1-0.5L153.8,130.1z"/>
	</g>
	<polygon class="st0" points="149.9,124.8 152.4,120.4 153.7,121.1 152,124.1 153.3,124.8 154.6,122.5 155.8,123.2 154.5,125.5 
		155.9,126.3 157.7,123.1 159,123.9 156.4,128.5 	"/>
	<polygon class="st0" points="153.5,118.2 154.1,116.7 159.9,115.7 155.4,113.8 156.1,112.2 162.9,115.2 162.3,116.6 156.5,117.7 
		161,119.6 160.4,121.1 	"/>
	<polygon class="st0" points="158.9,108.4 158.2,110.7 156.8,110.3 158.7,104.1 160.1,104.5 159.4,106.8 165.1,108.5 164.6,110.2 	
		"/>
	<polygon class="st0" points="159.1,102.1 160.1,97.1 161.6,97.3 160.9,100.7 162.3,101 162.8,98.4 164.2,98.6 163.7,101.2 
		165.3,101.6 166,98 167.5,98.2 166.5,103.5 	"/>
	<g>
		<path class="st0" d="M164.1,92.2c0-0.3,0-0.6-0.2-0.8c-0.2-0.2-0.4-0.3-0.7-0.3c-0.3,0-0.6,0-0.7,0.2c-0.2,0.2-0.3,0.4-0.3,0.7
			l-0.1,1l2,0.2L164.1,92.2z M160.5,94.6l0.2-2.8c0-0.4,0.1-0.8,0.3-1.1c0.2-0.3,0.3-0.6,0.6-0.8c0.2-0.2,0.5-0.3,0.8-0.4
			c0.3-0.1,0.6-0.1,0.9-0.1c0.5,0,0.9,0.2,1.2,0.4c0.3,0.2,0.6,0.6,0.8,1l3.1-1.4l-0.2,1.8l-2.9,1.1l-0.1,0.9l2.7,0.2l-0.1,1.6
			L160.5,94.6z"/>
	</g>
</g>
</svg>
