<svg xmlns="http://www.w3.org/2000/svg" xmlns:xlink="http://www.w3.org/1999/xlink" viewBox="0 0 29.76 42.38"><defs><style>.cls-1{fill:none;}.cls-2{clip-path:url(#clip-path);}.cls-3{fill:#335181;}.cls-3,.cls-4{fill-rule:evenodd;}.cls-4{fill:#f48220;}</style><clipPath id="clip-path"><rect class="cls-1" width="29.42" height="42.02"/></clipPath></defs><title>Asset 1</title><g id="Layer_2" data-name="Layer 2"><g id="Text"><g class="cls-2"><g id="Uzcard_logo_white" data-name="Uzcard logo white"><g id="Group_1648" data-name="Group 1648"><g id="Group_13" data-name="Group 13"><path id="Path_17" data-name="Path 17" class="cls-3" d="M28.81,17.72c0,5.23-1.19,9.13-3.58,11.66s-6.08,3.81-11,3.81q-7,0-10.57-3.81T0,17.9V.73A.73.73,0,0,1,.73,0H9.15a.73.73,0,0,1,.73.73V18.28a8.39,8.39,0,0,0,1.18,4.83,4.25,4.25,0,0,0,6,.83,4.38,4.38,0,0,0,.76-.73,8,8,0,0,0,1.15-4.71V15.22h9.88Z"/><path id="Path_18" data-name="Path 18" class="cls-3" d="M28.05,13.3H18.93V.76A.76.76,0,0,1,19.69,0h1.37a7.75,7.75,0,0,0,7.75,7.75h0V13.3Z"/><path id="Path_19" data-name="Path 19" class="cls-4" d="M23,0h5.05a.76.76,0,0,1,.76.76V5.82A5.81,5.81,0,0,1,23,0Z"/></g><path id="Path_20" data-name="Path 20" class="cls-3" d="M1.66,41.53A1.45,1.45,0,0,0,3.31,40V37.8h-.8V40A.86.86,0,1,1,.79,40V37.8H0V40a1.45,1.45,0,0,0,1.65,1.53Zm6.47-.07v-.68H6.36l1.73-2.36V37.8H5.34v.69H7.07L5.34,40.83v.63Zm3.73.07a1.67,1.67,0,0,0,1.53-.9l-.67-.32a1,1,0,0,1-.87.53,1.21,1.21,0,0,1,0-2.41,1,1,0,0,1,.87.53l.67-.33a1.68,1.68,0,0,0-1.53-.89,1.9,1.9,0,1,0-.12,3.79Zm6.81-.07L17.26,37.8h-1l-1.41,3.66h.89l.23-.62h1.57l.22.62Zm-1.33-1.3H16.2l.57-1.58Zm6.6,2.22L22.6,40.07A1.06,1.06,0,0,0,23.4,39a1.14,1.14,0,0,0-1.1-1.18H20.45v3.67h.78V40.16h.57l1.25,2.22Zm-1.89-2.9h-.82v-1h.82a.5.5,0,0,1,.55.44.51.51,0,0,1-.45.55Zm4.82,2a1.84,1.84,0,1,0,0-3.67H25.42v3.67Zm0-.69H26.2V38.49h.67a1.07,1.07,0,0,1,1.15,1v.16A1.11,1.11,0,0,1,27,40.78Z"/><path id="Path_21" data-name="Path 21" class="cls-3" d="M29.76,37.73h0a.68.68,0,1,1-.68-.68h.68Z"/></g></g></g></g></g></svg>