<?xml version="1.0" encoding="utf-8"?>
<!-- Generator: Adobe Illustrator 22.0.1, SVG Export Plug-In . SVG Version: 6.00 Build 0)  -->
<svg version="1.1" id="Layer_1" xmlns="http://www.w3.org/2000/svg" xmlns:xlink="http://www.w3.org/1999/xlink" x="0px" y="0px"
	 viewBox="0 0 587.8 91.2" style="enable-background:new 0 0 587.8 91.2;" xml:space="preserve">
<style type="text/css">
	.st0{display:none;}
	.st1{display:inline;}
	.st2{fill:none;}
	.st3{fill:#FFC107;}
	.st4{fill:#0F9D58;}
	.st5{opacity:0.2;fill:#BF360C;enable-background:new    ;}
	.st6{opacity:0.2;fill:#263238;enable-background:new    ;}
	.st7{opacity:0.2;fill:#FFFFFF;enable-background:new    ;}
	.st8{fill:url(#_Path_2_1_);}
	.st9{fill:url(#_Path_3_1_);}
	.st10{fill:#4285F4;}
	.st11{fill:#DB4437;}
	.st12{opacity:0.2;fill:#1A237E;enable-background:new    ;}
	.st13{opacity:0.2;fill:#3E2723;enable-background:new    ;}
	.st14{fill:url(#_Path_6_1_);}
	.st15{opacity:0.54;}
	.st16{fill:#757575;}
	.st17{font-family:'ProductSans-Regular';}
	.st18{font-size:82.07px;}
	.st19{letter-spacing:-5;}
	.st20{letter-spacing:-1;}
</style>
<title>Asset 1</title>
<g id="Layer_2_1_">
	<g id="Layer_4">
		<g id="_Group_" class="st0">
			<g id="_Group_2" class="st1">
				<path class="st2" d="M44.5,40.5l-19.1-33H0l21,36.4L0,80.2h25.5l19.1-32.9C45.8,45.2,45.8,42.6,44.5,40.5z"/>
				<polygon id="_Path_" class="st3" points="33.6,65.6 27.6,55.2 13.1,80.2 25.5,80.2 33.8,65.9 				"/>
				<path class="st2" d="M44.5,40.5l-19.1-33H0l21,36.4L0,80.2h25.5l19.1-32.9C45.8,45.2,45.8,42.6,44.5,40.5z"/>
				<polygon class="st4" points="21,43.8 27.6,55.2 13.1,80.2 0,80.2 				"/>
				<path class="st2" d="M44.5,40.5l-19.1-33H0l21,36.4L0,80.2h25.5l19.1-32.9C45.8,45.2,45.8,42.6,44.5,40.5z"/>
				<polygon class="st5" points="25.5,79.7 13.4,79.7 13.1,80.2 25.5,80.2 33.8,65.9 33.6,65.6 				"/>
				<path class="st2" d="M44.5,40.5l-19.1-33H0l21,36.4L0,80.2h25.5l19.1-32.9C45.8,45.2,45.8,42.6,44.5,40.5z"/>
				<polygon class="st6" points="0.3,79.7 0,80.2 13.1,80.2 13.4,79.7 				"/>
				<path class="st2" d="M44.5,40.5l-19.1-33H0l21,36.4L0,80.2h25.5l19.1-32.9C45.8,45.2,45.8,42.6,44.5,40.5z"/>
				<polygon class="st7" points="0,80.2 0.3,80.2 21.2,44.1 21,43.8 				"/>
				<path class="st2" d="M44.5,40.5l-19.1-33H0l21,36.4L0,80.2h25.5l19.1-32.9C45.8,45.2,45.8,42.6,44.5,40.5z"/>
				
					<radialGradient id="_Path_2_1_" cx="65.51" cy="679.19" r="25.16" gradientTransform="matrix(1 0 0 1 -31.83 -613.53)" gradientUnits="userSpaceOnUse">
					<stop  offset="0" style="stop-color:#BF360C;stop-opacity:0.2"/>
					<stop  offset="1" style="stop-color:#BF360C;stop-opacity:2.000000e-02"/>
				</radialGradient>
				<polygon id="_Path_2" class="st8" points="33.8,65.9 33.8,65.9 27.6,55.2 26,57.8 				"/>
				<path class="st2" d="M44.5,40.5l-19.1-33H0l21,36.4L0,80.2h25.5l19.1-32.9C45.8,45.2,45.8,42.6,44.5,40.5z"/>
				
					<radialGradient id="_Path_3_1_" cx="65.44" cy="679.35" r="25.36" gradientTransform="matrix(1 0 0 1 -31.83 -613.53)" gradientUnits="userSpaceOnUse">
					<stop  offset="0" style="stop-color:#263238;stop-opacity:0.2"/>
					<stop  offset="1" style="stop-color:#263238;stop-opacity:2.000000e-02"/>
				</radialGradient>
				<polygon id="_Path_3" class="st9" points="26,57.8 27.6,55.2 21,43.8 17.9,49.2 				"/>
				<path class="st2" d="M44.5,40.5l-19.1-33H0l21,36.4L0,80.2h25.5l19.1-32.9C45.8,45.2,45.8,42.6,44.5,40.5z"/>
				<g id="_Group_3">
					<g id="_Group_4">
						<polygon id="_Path_4" class="st10" points="13.1,7.5 0,7.5 33.8,65.9 40.3,54.6 40.3,54.6 						"/>
					</g>
				</g>
				<path class="st2" d="M44.5,40.5l-19.1-33H0l21,36.4L0,80.2h25.5l19.1-32.9C45.8,45.2,45.8,42.6,44.5,40.5z"/>
				<path class="st11" d="M44.5,47.3c1.2-2.1,1.2-4.7,0-6.8l-19.1-33H13.1l27.2,47.1L44.5,47.3z"/>
				<path class="st2" d="M44.5,40.5l-19.1-33H0l21,36.4L0,80.2h25.5l19.1-32.9C45.8,45.2,45.8,42.6,44.5,40.5z"/>
				<polygon class="st12" points="40.3,54.6 40.2,54.3 33.8,65.3 0.3,7.5 0,7.5 33.8,65.9 40.3,54.6 				"/>
				<path class="st2" d="M44.5,40.5l-19.1-33H0l21,36.4L0,80.2h25.5l19.1-32.9C45.8,45.2,45.8,42.6,44.5,40.5z"/>
				<path class="st7" d="M25.5,8.1l19.1,33c0.5,1,0.9,2,0.9,3.1c0.1-1.3-0.3-2.6-0.9-3.7l-19.1-33H0L0.3,8L25.5,8.1z"/>
				<path class="st2" d="M44.5,40.5l-19.1-33H0l21,36.4L0,80.2h25.5l19.1-32.9C45.8,45.2,45.8,42.6,44.5,40.5z"/>
				<path id="_Path_5" class="st13" d="M40.3,54.6l4.2-7.3c0.6-1.1,0.9-2.4,0.9-3.7c0,1.1-0.3,2.2-0.9,3.1l-4.4,7.6L40.3,54.6z"/>
				<path class="st2" d="M44.5,40.5l-19.1-33H0l21,36.4L0,80.2h25.5l19.1-32.9C45.8,45.2,45.8,42.6,44.5,40.5z"/>
				
					<radialGradient id="_Path_6_1_" cx="31.26" cy="621.58" r="76.35" gradientTransform="matrix(1 0 0 1 -31.83 -613.52)" gradientUnits="userSpaceOnUse">
					<stop  offset="0" style="stop-color:#FFFFFF;stop-opacity:0.1"/>
					<stop  offset="1" style="stop-color:#FFFFFF;stop-opacity:0"/>
				</radialGradient>
				<path id="_Path_6" class="st14" d="M44.5,40.5l-19.1-33H0l21,36.4L0,80.2h25.5l19.1-32.9C45.8,45.2,45.8,42.6,44.5,40.5z"/>
			</g>
		</g>
		<g id="Layer_4-2">
			<g id="_Group_5" class="st15">
				<path id="_Compound_Path_" d="M137.8,13.8h17.4c17.7,0,28.8,11.7,28.8,28.2s-11.1,28.2-28.8,28.2h-17.4V13.8z M155.5,61.8
					c12.3,0,20-6.8,20-19.7s-7.6-19.7-20-19.7h-9.1v39.4H155.5z"/>
				<rect id="_Path_7" x="72.4" y="12.4" class="st2" width="174.6" height="61.6"/>
				<path id="_Path_8" d="M130.6,39.5h-27.1v8.4h19.1c-0.6,4.3-2.1,7.6-4.3,9.8c-2.8,2.8-7.3,6-15,6C91.5,63.7,82,54.2,82,42.4
					c0-0.1,0-0.2,0-0.3c-0.2-11.8,9.3-21.5,21-21.6c0.1,0,0.2,0,0.3,0c5.4-0.1,10.7,2,14.6,5.8l5.7-5.7c-5.4-5.4-12.8-8.3-20.4-8.2
					c-16.4,0-30.1,13.3-30.1,29.7s13.8,29.7,30.2,29.7c8.8,0,15.5-2.9,20.7-8.3c5.4-5.4,7-12.9,7-19
					C131.1,42.8,130.9,41.2,130.6,39.5z"/>
				<path id="_Path_9" d="M247,39.5h-27.1v8.4h19.1c-0.6,4.3-2.1,7.6-4.3,9.8c-2.8,2.8-7.2,6-15,6c-11.8,0-21.3-9.6-21.3-21.3
					c0-0.1,0-0.2,0-0.3c-0.2-11.8,9.3-21.5,21-21.6c0.1,0,0.2,0,0.3,0c5.4-0.1,10.7,2,14.6,5.8l5.7-5.7c-5.4-5.4-12.8-8.3-20.4-8.2
					c-16.4,0-30.2,13.3-30.2,29.7s13.8,29.7,30.2,29.7c8.8,0,15.5-2.9,20.7-8.3s7-12.9,7-19C247.5,42.8,247.3,41.2,247,39.5z"/>
			</g>
		</g>
		<text transform="matrix(1 0 0 1 272.27 70.42)" class="st16 st17 st18 st19">T</text>
		<text transform="matrix(1 0 0 1 310.43 70.42)" class="st16 st17 st18">a</text>
		<text transform="matrix(1 0 0 1 352.05 70.42)" class="st16 st17 st18">sh</text>
		<text transform="matrix(1 0 0 1 433.87 70.42)" class="st16 st17 st18">k</text>
		<text transform="matrix(1 0 0 1 472.28 70.42)" class="st16 st17 st18">e</text>
		<text transform="matrix(1 0 0 1 516.27 70.42)" class="st16 st17 st18 st20">n</text>
		<text transform="matrix(1 0 0 1 558.71 70.42)" class="st16 st17 st18">t</text>
	</g>
</g>
<g id="XMLID_261_">
	<path id="XMLID_259_" class="st16" d="M14.9,3.5H3.5l32.8,61l5.8-10.7L14.9,3.5z"/>
	<path id="XMLID_258_" class="st16" d="M46.5,38.3L27.8,3.5H16.3l26.4,49.1l3.7-6.9c0.6-1.1,1-2.4,1-3.7
		C47.4,40.6,47.1,39.4,46.5,38.3L46.5,38.3z"/>
	<path id="XMLID_257_" class="st16" d="M23.5,43.3L3.8,79.8h11.5l14-25.9L23.5,43.3z"/>
	<path id="XMLID_256_" class="st16" d="M29.9,55.2L16.6,79.8h11.5l7.6-14L29.9,55.2L29.9,55.2z"/>
</g>
</svg>
